<svg width="1200" height="620" viewBox="0 0 1200 620" fill="none" xmlns="http://www.w3.org/2000/svg">
<g clip-path="url(#clip0)">
<rect width="1200" height="620" fill="#F0F0EF"/>
<path d="M-94 253L147.5 241L168.5 340.5L390.5 427.5L449 708.5L200.5 732.5L-106 716L-94 253Z" fill="#495BCF"/>
<path d="M488.5 231L366.5 411.5L429 646.5L840.5 654L715.5 569.5L764 343L488.5 231Z" fill="#FFC0BF"/>
<path d="M421 -60.5L504.5 186.5L835 320L796.5 110.5L857.5 -60.5H421Z" fill="#69CFBB"/>
<path d="M978.5 399.5L788.5 317L715.5 568L857.5 666L998 763.5L1242.5 728L1295.5 432.5L1075 309L978.5 399.5Z" fill="#060241"/>
<path d="M971.5 389L848.5 342.5L794 112.5L862.5 -70H1238V408.5L1067 306.5L971.5 389Z" fill="#FC6979"/>
<path d="M153 249.5H-90L-191 -115L403.5 -70.5L482.5 201.5L369.5 407.5L168.5 358.5L153 249.5Z" fill="#FFD02E"/>
<path d="M956.882 514.265V500.971C956.882 498.326 955.832 495.79 953.962 493.92C952.092 492.05 949.556 491 946.912 491L933.618 520.912V557.47H971.107C972.71 557.488 974.265 556.926 975.487 555.888C976.708 554.85 977.513 553.405 977.754 551.82L982.34 521.909C982.485 520.956 982.42 519.983 982.152 519.058C981.883 518.132 981.416 517.277 980.784 516.549C980.152 515.822 979.369 515.241 978.49 514.847C977.611 514.452 976.657 514.254 975.693 514.265H956.882ZM933.618 557.47H923.647C921.884 557.47 920.193 556.77 918.947 555.523C917.7 554.277 917 552.586 917 550.823V527.559C917 525.796 917.7 524.105 918.947 522.858C920.193 521.612 921.884 520.912 923.647 520.912H933.618" fill="#040037"/>
<path d="M933.618 557.47H923.647C921.884 557.47 920.193 556.77 918.947 555.523C917.7 554.277 917 552.586 917 550.823V527.559C917 525.796 917.7 524.105 918.947 522.858C920.193 521.612 921.884 520.912 923.647 520.912H933.618M956.882 514.265V500.971C956.882 498.326 955.832 495.79 953.962 493.92C952.092 492.05 949.556 491 946.912 491L933.618 520.912V557.47H971.107C972.71 557.488 974.265 556.926 975.487 555.888C976.708 554.85 977.513 553.405 977.754 551.82L982.34 521.909C982.485 520.956 982.42 519.983 982.152 519.058C981.883 518.132 981.416 517.277 980.784 516.549C980.152 515.822 979.369 515.241 978.49 514.847C977.611 514.452 976.657 514.254 975.693 514.265H956.882Z" stroke="#FEFEFE" stroke-width="5" stroke-linecap="round" stroke-linejoin="round"/>
<path d="M1025.12 539.506V552.8C1025.12 555.445 1026.17 557.981 1028.04 559.85C1029.91 561.72 1032.44 562.771 1035.09 562.771L1048.38 532.859V496.301H1010.89C1009.29 496.283 1007.74 496.844 1006.51 497.883C1005.29 498.921 1004.49 500.366 1004.25 501.951L999.66 531.862C999.516 532.815 999.58 533.788 999.849 534.713C1000.12 535.638 1000.58 536.494 1001.22 537.221C1001.85 537.948 1002.63 538.529 1003.51 538.924C1004.39 539.318 1005.34 539.517 1006.31 539.506H1025.12ZM1048.38 496.301H1057.26C1059.14 496.267 1060.97 496.926 1062.39 498.151C1063.82 499.377 1064.75 501.083 1065 502.948V526.212C1064.75 528.077 1063.82 529.783 1062.39 531.009C1060.97 532.234 1059.14 532.893 1057.26 532.859H1048.38" fill="#040037"/>
<path d="M1048.38 532.859L1035.09 562.771C1032.44 562.771 1029.91 561.72 1028.04 559.85C1026.17 557.981 1025.12 555.445 1025.12 552.8V539.506H1006.31C1005.34 539.517 1004.39 539.318 1003.51 538.924C1002.63 538.529 1001.85 537.948 1001.22 537.221C1000.58 536.494 1000.12 535.638 999.849 534.713C999.58 533.788 999.516 532.815 999.66 531.862L1004.25 501.951C1004.49 500.366 1005.29 498.921 1006.51 497.883C1007.74 496.844 1009.29 496.283 1010.89 496.301H1048.38M1048.38 532.859V496.301M1048.38 532.859H1057.26C1059.14 532.893 1060.97 532.234 1062.39 531.009C1063.82 529.783 1064.75 528.077 1065 526.212V502.948C1064.75 501.083 1063.82 499.377 1062.39 498.151C1060.97 496.926 1059.14 496.267 1057.26 496.301H1048.38" stroke="#FEFEFE" stroke-width="5" stroke-linecap="round" stroke-linejoin="round"/>
<path d="M1048.38 496.301V532.859H1057.26C1059.14 532.893 1060.96 532.234 1062.39 531.009C1063.82 529.783 1064.75 528.077 1065 526.212V502.948C1064.75 501.083 1063.82 499.377 1062.39 498.151C1060.96 496.926 1059.14 496.267 1057.26 496.301H1048.38Z" fill="#9996B8" stroke="#FEFEFE" stroke-width="5" stroke-linecap="round" stroke-linejoin="round"/>
<path d="M933.618 521.032V557.59H924.744C922.863 557.624 921.035 556.965 919.608 555.74C918.18 554.515 917.252 552.808 917 550.943V527.679C917.252 525.815 918.18 524.108 919.608 522.883C921.035 521.657 922.863 520.999 924.744 521.032H933.618Z" fill="#9996B8" stroke="#FEFEFE" stroke-width="5" stroke-linecap="round" stroke-linejoin="round"/>
<path d="M244.918 468.575C244.224 467.788 243.283 467.345 242.302 467.345H187.781C179.066 467.345 172.001 474.391 172.001 483.105L172.001 559.686C172.001 560.799 172.391 561.866 173.085 562.653C173.779 563.441 174.72 563.883 175.701 563.883H242.302C243.283 563.883 244.224 563.441 244.918 562.653C245.612 561.866 246.002 560.799 246.002 559.686V471.543C246.002 470.43 245.612 469.362 244.918 468.575Z" fill="#F7F7F5" stroke="#323537" stroke-width="5" stroke-linecap="round" stroke-linejoin="round"/>
<path d="M99.084 468.575C99.7778 467.788 100.719 467.345 101.7 467.345H156.221C164.936 467.345 172.001 474.391 172.001 483.105L172.001 559.686C172.001 560.799 171.611 561.866 170.917 562.653C170.223 563.441 169.282 563.883 168.301 563.883H101.7C100.719 563.883 99.7778 563.441 99.084 562.653C98.3901 561.866 98.0002 560.799 98.0002 559.686V471.543C98.0002 470.43 98.3901 469.362 99.084 468.575Z" fill="#F7F7F5" stroke="#323537" stroke-width="5" stroke-linecap="round" stroke-linejoin="round"/>
<line x1="188.929" y1="501.243" x2="233.793" y2="501.243" stroke="#323537" stroke-width="5" stroke-linecap="round"/>
<line x1="2.5" y1="-2.5" x2="43.5823" y2="-2.5" transform="matrix(-1 0 0 1 157.873 503.673)" stroke="#323537" stroke-width="5" stroke-linecap="round"/>
<line x1="188.964" y1="513.619" x2="230.047" y2="513.619" stroke="#323537" stroke-width="5" stroke-linecap="round"/>
<line x1="144.609" y1="514.582" x2="114.291" y2="514.582" stroke="#323537" stroke-width="5" stroke-linecap="round"/>
<line x1="149.992" y1="527.691" x2="114.291" y2="527.691" stroke="#323537" stroke-width="5" stroke-linecap="round"/>
<line x1="211.546" y1="527.691" x2="188.964" y2="527.691" stroke="#323537" stroke-width="5" stroke-linecap="round"/>
<path d="M203.497 525.168L202.878 518.772C202.807 518.043 203.066 517.321 203.583 516.804L242.616 477.751L251.629 468.733C252.586 467.776 254.138 467.776 255.095 468.733L261.269 474.911C262.225 475.868 262.225 477.418 261.269 478.374L252.254 487.394L213.103 526.565C212.655 527.013 212.05 527.271 211.415 527.282L205.98 527.381C204.702 527.405 203.621 526.441 203.497 525.168Z" fill="#C4CBF5"/>
<path d="M252.254 487.394L261.269 478.374C262.225 477.418 262.225 475.868 261.269 474.911L255.095 468.733C254.138 467.776 252.586 467.776 251.629 468.733L242.616 477.751M252.254 487.394L213.103 526.565C212.655 527.013 212.05 527.271 211.415 527.282L205.98 527.381C204.702 527.405 203.621 526.441 203.497 525.168L202.878 518.772C202.807 518.043 203.066 517.321 203.583 516.804L242.616 477.751M252.254 487.394L242.616 477.751" stroke="#323537" stroke-width="5" stroke-linejoin="round"/>
<path d="M182.206 93.4807L180.406 91.7463L181.143 90.9807H182.206V93.4807ZM173.783 102.225L175.584 103.959L173.783 102.225ZM170.336 93.4807V90.9807H172.836V93.4807H170.336ZM263.907 63.3767C263.907 61.2356 262.172 59.5 260.031 59.5V54.5C264.933 54.5 268.907 58.4742 268.907 63.3767H263.907ZM263.907 87.104V63.3767H268.907V87.104H263.907ZM260.031 90.9807C262.172 90.9807 263.907 89.245 263.907 87.104H268.907C268.907 92.0065 264.933 95.9807 260.031 95.9807V90.9807ZM182.206 90.9807H260.031V95.9807H182.206V90.9807ZM171.983 100.49L180.406 91.7463L184.007 95.2151L175.584 103.959L171.983 100.49ZM172.836 100.684C172.836 100.647 172.821 100.572 172.771 100.498C172.728 100.434 172.672 100.389 172.609 100.361C172.546 100.333 172.444 100.308 172.311 100.33C172.162 100.354 172.044 100.427 171.983 100.49L175.584 103.959C174.142 105.456 172.122 105.62 170.568 104.926C169.029 104.237 167.836 102.673 167.836 100.684H172.836ZM172.836 93.4807V100.684H167.836V93.4807H172.836ZM159.291 90.9807H170.336V95.9807H159.291V90.9807ZM155.414 87.104C155.414 89.245 157.15 90.9807 159.291 90.9807V95.9807C154.389 95.9807 150.414 92.0065 150.414 87.104H155.414ZM155.414 63.3767V87.104H150.414V63.3767H155.414ZM159.291 59.5C157.15 59.5 155.414 61.2356 155.414 63.3767H150.414C150.414 58.4742 154.389 54.5 159.291 54.5V59.5ZM260.031 59.5H159.291V54.5H260.031V59.5Z" fill="#323537"/>
<path fill-rule="evenodd" clip-rule="evenodd" d="M214.688 116.383C211.166 116.383 208.312 119.238 208.312 122.759V146.495C208.312 150.017 211.166 152.872 214.688 152.872H292.513L300.936 161.618C302.192 162.923 304.383 161.944 304.383 160.077V152.872H315.428C318.949 152.872 321.804 150.017 321.804 146.495V122.759C321.804 119.238 318.949 116.383 315.428 116.383H214.688Z" fill="#D3A811"/>
<path d="M292.513 152.872L294.314 151.138L293.576 150.372H292.513V152.872ZM300.936 161.618L299.135 163.353L300.936 161.618ZM304.383 152.872V150.372H301.883V152.872H304.383ZM210.812 122.759C210.812 120.618 212.547 118.883 214.688 118.883V113.883C209.786 113.883 205.812 117.857 205.812 122.759H210.812ZM210.812 146.495V122.759H205.812V146.495H210.812ZM214.688 150.372C212.547 150.372 210.812 148.636 210.812 146.495H205.812C205.812 151.398 209.786 155.372 214.688 155.372V150.372ZM292.513 150.372H214.688V155.372H292.513V150.372ZM302.737 159.884L294.314 151.138L290.712 154.606L299.135 163.353L302.737 159.884ZM301.883 160.077C301.883 160.04 301.898 159.966 301.948 159.892C301.991 159.828 302.047 159.783 302.11 159.755C302.173 159.727 302.275 159.701 302.408 159.723C302.558 159.748 302.676 159.821 302.737 159.884L299.135 163.353C300.577 164.849 302.598 165.014 304.151 164.319C305.691 163.631 306.883 162.066 306.883 160.077H301.883ZM301.883 152.872V160.077H306.883V152.872H301.883ZM315.428 150.372H304.383V155.372H315.428V150.372ZM319.304 146.495C319.304 148.636 317.569 150.372 315.428 150.372V155.372C320.33 155.372 324.304 151.398 324.304 146.495H319.304ZM319.304 122.759V146.495H324.304V122.759H319.304ZM315.428 118.883C317.569 118.883 319.304 120.618 319.304 122.759H324.304C324.304 117.857 320.33 113.883 315.428 113.883V118.883ZM214.688 118.883H315.428V113.883H214.688V118.883Z" fill="#323537"/>
<circle cx="302.263" cy="191.72" r="18.2371" fill="#F7F7F5" stroke="#323537" stroke-width="5"/>
<path d="M313.635 205.727V203.64C313.635 202.11 313.027 200.642 311.945 199.56C310.863 198.478 309.396 197.87 307.865 197.87H296.326C294.796 197.87 293.329 198.478 292.247 199.56C291.165 200.642 290.557 202.11 290.557 203.64V205.727" stroke="#323537" stroke-width="5" stroke-linecap="round" stroke-linejoin="round"/>
<path d="M302.096 192.1C305.282 192.1 307.865 189.517 307.865 186.331C307.865 183.144 305.282 180.561 302.096 180.561C298.909 180.561 296.326 183.144 296.326 186.331C296.326 189.517 298.909 192.1 302.096 192.1Z" stroke="#323537" stroke-width="5" stroke-linecap="round" stroke-linejoin="round"/>
<circle cx="172.737" cy="133.533" r="18.2371" fill="#F7F7F5" stroke="#323537" stroke-width="5"/>
<path d="M184.109 147.54V145.452C184.109 143.922 183.501 142.455 182.419 141.373C181.337 140.291 179.87 139.683 178.34 139.683H166.8C165.27 139.683 163.803 140.291 162.721 141.373C161.639 142.455 161.031 143.922 161.031 145.452V147.54" stroke="#323537" stroke-width="5" stroke-linecap="round" stroke-linejoin="round"/>
<path d="M172.57 133.913C175.756 133.913 178.34 131.33 178.34 128.144C178.34 124.957 175.756 122.374 172.57 122.374C169.383 122.374 166.8 124.957 166.8 128.144C166.8 131.33 169.383 133.913 172.57 133.913Z" stroke="#323537" stroke-width="5" stroke-linecap="round" stroke-linejoin="round"/>
<line x1="254.56" y1="134.606" x2="302.965" y2="134.606" stroke="#323537" stroke-width="5" stroke-linecap="round"/>
<line x1="186.808" y1="75.2241" x2="249.56" y2="75.2241" stroke="#323537" stroke-width="5" stroke-linecap="round"/>
<path d="M521 508.861V374.651C521 371.53 523.53 369 526.651 369H589.682C592.803 369 595.333 371.53 595.333 374.651V508.861C595.333 511.982 592.803 514.512 589.682 514.512H526.651C523.53 514.512 521 511.982 521 508.861Z" fill="#F7F7F5" stroke="#323537" stroke-width="5.51181" stroke-linejoin="round"/>
<path d="M531.361 458.586V435.394C531.361 432.468 533.733 430.096 536.659 430.096H580.574C583.5 430.096 585.872 432.468 585.872 435.394V458.586C585.872 461.512 583.5 463.884 580.574 463.884H536.659C533.733 463.884 531.361 461.512 531.361 458.586Z" fill="#F69E9C" stroke="#323537" stroke-width="5.51181"/>
<line x1="552.363" y1="378.253" x2="563.566" y2="378.253" stroke="#323537" stroke-width="5.51181" stroke-linecap="round"/>
<line x1="543.685" y1="504.3" x2="572.887" y2="504.299" stroke="#323537" stroke-width="5.51181" stroke-linecap="round"/>
<path fill-rule="evenodd" clip-rule="evenodd" d="M568.883 444.337C566.378 445.308 565.135 448.125 566.106 450.629L578.473 482.533C579.349 484.865 577.367 487.279 574.902 486.863L567.239 485.571C565.843 485.335 564.457 486.033 563.814 487.294L562.816 489.254C561.929 490.996 562.776 493.121 564.618 493.775L586.22 501.449C586.951 501.709 587.751 501.698 588.474 501.417L607.988 493.853C614.622 491.281 617.915 483.819 615.344 477.185L610.915 465.76C610.454 464.57 609.337 463.762 608.063 463.696L583.141 462.409C581.876 462.343 580.767 461.541 580.31 460.361L575.175 447.114C574.204 444.61 571.387 443.367 568.883 444.337Z" fill="#D96A69"/>
<path d="M566.106 450.629L568.676 449.633L566.106 450.629ZM578.473 482.533L581.053 481.564L581.048 481.551L581.043 481.537L578.473 482.533ZM574.902 486.863L574.444 489.581L574.444 489.581L574.902 486.863ZM567.239 485.571L567.697 482.853L567.697 482.853L567.239 485.571ZM563.814 487.294L566.27 488.545L566.27 488.545L563.814 487.294ZM562.816 489.254L560.361 488.003L560.361 488.003L562.816 489.254ZM564.618 493.775L565.541 491.178L565.541 491.178L564.618 493.775ZM586.22 501.449L587.142 498.852L587.142 498.852L586.22 501.449ZM615.344 477.185L612.774 478.181L615.344 477.185ZM610.915 465.76L613.485 464.764L610.915 465.76ZM608.063 463.696L607.92 466.448L608.063 463.696ZM575.175 447.114L572.605 448.11L575.175 447.114ZM568.676 449.633C568.255 448.548 568.794 447.328 569.879 446.907L567.887 441.768C563.963 443.289 562.016 447.702 563.536 451.625L568.676 449.633ZM581.043 481.537L568.676 449.633L563.536 451.625L575.904 483.53L581.043 481.537ZM575.893 483.502C576.023 483.848 575.727 484.208 575.361 484.146L574.444 489.581C579.008 490.351 582.675 485.882 581.053 481.564L575.893 483.502ZM575.361 484.146L567.697 482.853L566.78 488.288L574.444 489.581L575.361 484.146ZM567.697 482.853C565.114 482.417 562.548 483.709 561.359 486.043L566.27 488.545C566.366 488.357 566.572 488.253 566.78 488.288L567.697 482.853ZM561.359 486.043L560.361 488.003L565.272 490.505L566.27 488.545L561.359 486.043ZM560.361 488.003C558.718 491.227 560.286 495.161 563.695 496.372L565.541 491.178C565.266 491.081 565.14 490.764 565.272 490.505L560.361 488.003ZM563.695 496.372L585.297 504.046L587.142 498.852L565.541 491.178L563.695 496.372ZM585.297 504.046C586.65 504.527 588.131 504.506 589.47 503.987L587.478 498.848C587.37 498.889 587.251 498.891 587.142 498.852L585.297 504.046ZM589.47 503.987L608.984 496.422L606.992 491.283L587.478 498.848L589.47 503.987ZM608.984 496.422C617.037 493.301 621.035 484.242 617.913 476.189L612.774 478.181C614.796 483.396 612.207 489.262 606.992 491.283L608.984 496.422ZM617.913 476.189L613.485 464.764L608.345 466.756L612.774 478.181L617.913 476.189ZM613.485 464.764C612.631 462.561 610.564 461.066 608.205 460.944L607.92 466.448C608.11 466.458 608.277 466.579 608.345 466.756L613.485 464.764ZM608.205 460.944L583.283 459.657L582.999 465.161L607.92 466.448L608.205 460.944ZM572.605 448.11L577.74 461.357L582.879 459.364L577.744 446.118L572.605 448.11ZM569.879 446.907C570.964 446.486 572.184 447.025 572.605 448.11L577.744 446.118C576.223 442.195 571.81 440.247 567.887 441.768L569.879 446.907ZM583.283 459.657C583.103 459.647 582.944 459.533 582.879 459.364L577.74 461.357C578.59 463.55 580.649 465.04 582.999 465.161L583.283 459.657Z" fill="#323537"/>
<path d="M586 120.765V67.2236C586 64.3387 588.339 62 591.224 62H649.826C652.711 62 655.049 64.3387 655.049 67.2236V120.765C655.049 123.65 652.711 125.989 649.826 125.989H591.224C588.339 125.989 586 123.65 586 120.765Z" fill="#25AB91" stroke="#323537" stroke-width="4.30109" stroke-linejoin="round"/>
<path d="M629.011 140.55V87.0085C629.011 84.1236 631.349 81.7849 634.234 81.7849H692.837C695.721 81.7849 698.06 84.1236 698.06 87.0085V140.55C698.06 143.435 695.721 145.774 692.837 145.774H634.234C631.349 145.774 629.011 143.435 629.011 140.55Z" fill="#ABD9D0" stroke="#323537" stroke-width="4.30109" stroke-linejoin="round"/>
<path d="M604.925 163.776V110.235C604.925 107.35 607.263 105.011 610.148 105.011H668.751C671.636 105.011 673.974 107.35 673.974 110.235V163.776C673.974 166.661 671.636 169 668.751 169H610.148C607.263 169 604.925 166.661 604.925 163.776Z" fill="#F7F7F5" stroke="#323537" stroke-width="4.30109" stroke-linejoin="round"/>
<path d="M974 200.03V101.993C974 99.4523 976.059 97.3928 978.6 97.3928H1061.4C1063.94 97.3928 1066 99.4523 1066 101.993V200.03C1066 202.571 1063.94 204.63 1061.4 204.63H978.6C976.059 204.63 974 202.571 974 200.03Z" fill="#F7F7F5" stroke="#323537" stroke-width="5" stroke-linejoin="round"/>
<path d="M1000.74 105.964V102.137C1000.74 97.0613 1002.75 92.1938 1006.34 88.605C1009.93 85.0162 1014.8 83 1019.87 83C1024.95 83 1029.82 85.0162 1033.41 88.605C1036.99 92.1938 1039.01 97.0613 1039.01 102.137V105.964H1000.74Z" fill="#F0B2B9" stroke="#323537" stroke-width="5" stroke-linecap="round" stroke-linejoin="round"/>
<circle cx="997.144" cy="129.161" r="6.84375" fill="#323537" stroke="#323537" stroke-width="5"/>
<path d="M1000.84 126.678L995.484 132.092L993.048 129.632" stroke="#F7F7F5" stroke-width="3" stroke-linecap="round" stroke-linejoin="round"/>
<circle cx="997.144" cy="152.737" r="7.34375" fill="#F7F7F5" stroke="#323537" stroke-width="4"/>
<circle cx="997.144" cy="176.312" r="9.34375" fill="#DD4354"/>
<path fill-rule="evenodd" clip-rule="evenodd" d="M993.312 174.829C992.753 174.265 992.758 173.355 993.322 172.796C993.886 172.238 994.797 172.242 995.355 172.807L997.013 174.482L998.671 172.807C999.23 172.242 1000.14 172.238 1000.7 172.796C1001.27 173.355 1001.27 174.265 1000.71 174.829L999.036 176.525L1000.71 178.22C1001.27 178.785 1001.27 179.695 1000.7 180.253C1000.14 180.812 999.23 180.807 998.671 180.243L997.013 178.568L995.355 180.243C994.797 180.807 993.886 180.812 993.322 180.253C992.758 179.695 992.753 178.785 993.312 178.22L994.991 176.525L993.312 174.829Z" fill="#F7F7F5"/>
<line x1="1014.5" y1="129.5" x2="1045.5" y2="129.5" stroke="#323537" stroke-width="5" stroke-linecap="round"/>
<line x1="1014.5" y1="177.5" x2="1045.5" y2="177.5" stroke="#323537" stroke-width="5" stroke-linecap="round"/>
<line x1="1014.5" y1="153.5" x2="1038.5" y2="153.5" stroke="#323537" stroke-width="5" stroke-linecap="round"/>
<path d="M-50.5 265.5L150 240L179.5 354.5L372.5 402M372.5 402L487 207.5M372.5 402L445 699.5M487 207.5L399.5 -78.5M487 207.5L786 326.254M1269 423.5L1074 313L958.5 402L872.25 364.127M786 326.254L709 535L799 673M786 326.254L872.25 364.127M872.25 364.127L806 115.5L905.5 -91.5" stroke="#F0F0EF" stroke-width="52"/>
<path d="M794.5 303.5L770.5 367.5" stroke="#F0F0EF" stroke-width="44"/>
</g>
<defs>
<clipPath id="clip0">
<rect width="1200" height="620" fill="white"/>
</clipPath>
</defs>
</svg>
