<svg width="14" height="20" viewBox="0 0 14 20" fill="none" xmlns="http://www.w3.org/2000/svg">
<g clip-path="url(#clip0_721_11582)">
<path d="M3.25385 0H6.49467V6.48165H3.25385C-1.01992 6.31458 -1.06307 0.175467 3.25385 0ZM3.25385 13.2405H6.49467V6.75887H3.25385C-1.06307 6.93433 -1.01992 13.0734 3.25385 13.2405ZM10.0127 0H6.77189V6.48165H10.0127C14.344 6.24984 14.2901 0.132309 10.0127 0ZM6.49467 16.7586V13.5177H3.25385C0.609269 13.5177 -1.06307 16.6184 0.776171 18.8454C2.52976 21.0528 6.49467 19.9523 6.49467 16.7586ZM13.2601 9.9997C13.2601 7.5091 10.5454 5.94402 8.38534 7.18932C6.22527 8.43462 6.22528 11.5648 8.38534 12.8101C10.5454 14.0554 13.2601 12.4903 13.2601 9.9997Z" fill="#1D325F"/>
</g>
<defs>
<clipPath id="clip0_721_11582">
<rect width="13.2812" height="20" fill="white"/>
</clipPath>
</defs>
</svg>
