<svg width="20" height="20" viewBox="0 0 20 20" fill="none" xmlns="http://www.w3.org/2000/svg">
<path d="M19.9941 0H0.00585938C0.00262333 0 0 0.00262333 0 0.00585938V19.9941C0 19.9974 0.00262333 20 0.00585938 20H19.9941C19.9974 20 20 19.9974 20 19.9941V0.00585938C20 0.00262333 19.9974 0 19.9941 0Z" fill="#1A2C54"/>
<path d="M13.5195 8.27734C10.6523 8.27734 10.6484 11.1328 10.6484 11.1484C10.6484 11.1484 10.4531 14.0078 13.5195 14.0078C13.5195 14.0078 16.0781 14.1523 16.0781 12.0195H14.7656C14.7656 12.0195 14.8086 12.8242 13.5664 12.8242C13.5664 12.8242 12.2539 12.9102 12.2539 11.5273H16.125C16.125 11.5273 16.5508 8.28125 13.5234 8.28125L13.5195 8.27734ZM12.2344 10.5234C12.2344 10.5234 12.3945 9.375 13.5469 9.375C14.7031 9.375 14.6836 10.5234 14.6836 10.5234H12.2305H12.2344ZM8.95312 9.78906C8.95312 9.78906 10.0898 9.70703 10.0898 8.36719C10.0898 7.03125 9.16016 6.37891 7.97656 6.37891H4.08594V13.8555H7.97266C7.97266 13.8555 10.3477 13.9297 10.3477 11.6484C10.3477 11.6484 10.4492 9.79297 8.94922 9.79297L8.95312 9.78906ZM5.80469 7.70312H7.98047C7.98047 7.70312 8.50781 7.70313 8.50781 8.48047C8.50781 9.25781 8.19922 9.37109 7.84766 9.37109H5.80859V7.70312H5.80469ZM7.87109 12.5234H5.80469V10.5234H7.98047C7.98047 10.5234 8.76953 10.5156 8.76562 11.5547C8.76562 12.4297 8.17969 12.5195 7.87109 12.5273V12.5234ZM11.9141 6.81641V7.73828H15V6.81641H11.9141Z" fill="white"/>
</svg>
