<svg width="190" height="40" viewBox="0 0 285 60" fill="none" xmlns="http://www.w3.org/2000/svg">
<g clip-path="url(#clip0_1417_12330)">
<path d="M20.5865 22.7417C20.5865 19.005 20.5865 15.2683 20.5865 11.5315C20.5865 9.02042 20.5865 6.50385 20.5865 3.99273C20.5865 3.17566 20.5865 2.35859 20.5865 1.54153C20.5865 1.35088 20.6355 1.08397 20.5865 0.898766C20.581 0.876977 20.6028 0.773482 20.5865 0.757141C20.5538 0.724458 20.3358 0.855189 20.3412 0.882425C20.3576 0.996814 21.0879 1.31275 21.1806 1.36722C21.8292 1.74307 22.4833 2.11892 23.1319 2.49477C25.1812 3.6768 27.2306 4.86427 29.28 6.04629C33.5804 8.53018 37.8754 11.0141 42.1758 13.4979C42.7318 13.8193 43.2877 14.1407 43.8491 14.4621C43.9581 14.5275 44.1107 14.6582 44.2361 14.6854C44.3887 14.7181 44.2252 14.571 44.2198 14.6201C44.1598 15.0449 44.2198 15.5243 44.2198 15.9546C44.2198 16.8697 44.2198 17.7848 44.2198 18.6999C44.2198 23.8039 44.2198 28.9078 44.2198 34.0118C44.2198 34.7907 44.2198 35.5697 44.2198 36.3486C44.2198 36.5229 44.1653 36.7953 44.2198 36.9587C44.2252 36.9805 44.2034 37.0676 44.2198 37.084C44.2579 37.1221 44.465 36.9914 44.4541 36.9478C44.4378 36.8661 44.0072 36.6863 43.9363 36.6482C43.5821 36.4412 43.2223 36.2288 42.868 36.0218C41.8215 35.4117 40.7805 34.8016 39.734 34.1916C37.641 32.9659 35.548 31.7458 33.4551 30.5202C33.2534 30.4058 32.9918 30.1716 32.7629 30.1171C32.5939 30.0735 32.6811 30.226 32.7411 30.0953C32.8119 29.921 32.7411 29.5506 32.7411 29.36C32.7411 28.9133 32.7411 28.4666 32.7411 28.02C32.7411 25.4053 32.7411 22.7907 32.7411 20.1761C32.7411 19.1521 32.7411 18.128 32.7411 17.1039C32.7411 16.7063 32.8937 15.862 32.3541 15.7313C31.9344 15.6332 31.2858 16.1888 30.9642 16.374C30.0104 16.9296 29.062 17.4907 28.1081 18.0463C25.9225 19.3264 23.7369 20.6064 21.5512 21.8811C21.2514 22.0554 20.9517 22.2297 20.6573 22.404C20.6028 22.4367 20.4611 22.4857 20.423 22.5402C20.2649 22.7853 20.3739 22.1262 20.5701 22.6546C20.4175 22.246 19.758 22.4258 19.9106 22.8343C20.1941 23.6024 20.8754 23.0576 21.3223 22.7962C22.2271 22.2678 23.1319 21.7394 24.0366 21.2056C26.3095 19.8765 28.5823 18.5474 30.8497 17.2183C30.986 17.1366 32.305 16.5211 32.3105 16.3631C32.3105 16.325 32.0597 16.2324 32.0543 16.2378C32.0434 16.2487 32.0597 16.3032 32.0543 16.3141C32.0216 16.3795 32.0543 16.5429 32.0543 16.6137C32.0543 16.9732 32.0543 17.3327 32.0543 17.6868C32.0543 20.3068 32.0543 22.9269 32.0543 25.547C32.0543 26.6909 32.0543 27.8348 32.0543 28.9787C32.0543 29.3981 31.8962 30.1988 32.2124 30.5474C32.523 30.896 33.128 31.1139 33.5205 31.3482C34.5452 31.9473 35.5698 32.5465 36.5891 33.1457C38.7802 34.4258 40.9713 35.7058 43.1569 36.9914C43.4894 37.1875 44.1598 37.7594 44.5795 37.5742C44.9883 37.3945 44.8847 36.8116 44.8847 36.4521C44.8847 31.7131 44.8847 26.9741 44.8847 22.2351C44.8847 20.0617 44.8847 17.8938 44.8847 15.7204C44.8847 15.3609 44.9447 14.9414 44.8847 14.5819C44.8193 14.1788 44.5195 14.0699 44.2089 13.8901C40.4535 11.7222 36.6926 9.54879 32.9373 7.38084C29.062 5.13118 25.1703 2.88152 21.2787 0.631857C21.0389 0.495679 20.7173 0.223323 20.4284 0.217876C19.8234 0.206982 19.9052 0.866083 19.9052 1.27462C19.9052 3.19745 19.9052 5.12028 19.9052 7.04311C19.9052 11.9455 19.9052 16.8534 19.9052 21.7558C19.9052 22.0826 19.9052 22.4094 19.9052 22.7417C19.9052 23.1775 20.5865 23.1775 20.5865 22.7417Z" fill="#1D325F"/>
<path d="M20.3249 22.5892C18.0357 23.8366 15.741 25.084 13.4518 26.3314C12.9504 26.6037 12.389 26.7562 12.3508 27.3936C12.3127 28.0527 12.3563 28.7281 12.3617 29.3872C12.3944 35.5915 12.4326 41.7957 12.4653 48C12.4762 50.0863 12.4871 52.167 12.498 54.2533C12.5034 54.8089 12.7269 55.37 13.4191 55.0649C14.0405 54.7871 14.6291 54.3731 15.2232 54.0354C20.3903 51.0885 25.5573 48.1416 30.7244 45.1947C31.0569 45.0041 31.9071 44.7099 32.0434 44.2851C32.2069 43.773 31.4766 43.4898 31.1386 43.2828C30.5554 42.9233 29.9722 42.5692 29.389 42.2097C26.5602 40.4775 23.7423 38.729 20.8863 37.035C20.7446 36.9532 20.6029 36.8606 20.4611 36.7844C20.363 36.7299 20.096 36.5284 20.3576 36.7463C20.3739 36.8824 20.3957 37.0186 20.4121 37.1602C20.363 37.2692 20.2813 37.2365 20.4066 37.1984C20.4993 37.1711 20.6083 37.0731 20.6955 37.0241C21.0062 36.8389 21.3169 36.6591 21.6275 36.4793C22.5868 35.9292 23.5461 35.3845 24.5108 34.8398C26.6529 33.6305 28.8004 32.4267 30.9533 31.2229C31.4548 30.9451 31.9507 30.6618 32.4522 30.384C32.8337 30.1716 32.4903 29.5833 32.1088 29.7957C28.5169 31.7948 24.9251 33.7939 21.3659 35.842C21.0062 36.049 20.6465 36.256 20.2867 36.4685C20.1505 36.5502 19.8943 36.6591 19.8234 36.8116C19.7689 36.9369 19.7526 37.1221 19.8779 37.2256C20.0796 37.389 19.8888 37.2365 20.0578 37.34C20.1995 37.4217 20.3467 37.5034 20.4884 37.5906C20.9626 37.8738 21.4368 38.1571 21.911 38.4458C23.3717 39.3282 24.8324 40.2215 26.2877 41.1094C27.6612 41.9483 29.0347 42.7871 30.4083 43.6314C30.6263 43.7676 30.8497 43.9038 31.0678 44.0345C31.1386 44.0781 31.2422 44.1761 31.3185 44.187C31.3403 44.1925 31.4166 44.2687 31.4329 44.2578C31.4548 44.2469 31.4493 43.9855 31.4602 43.9909C31.422 43.9691 31.0896 44.2034 31.0514 44.2252C26.2005 46.9923 21.355 49.754 16.5041 52.5211C15.5884 53.044 14.6727 53.567 13.7571 54.0899C13.6153 54.1716 13.2011 54.3132 13.1193 54.4548C13.0485 54.5692 13.1248 54.6183 13.1902 54.5093C13.2556 54.4004 13.1902 54.0354 13.1848 53.9101C13.1848 53.5452 13.1793 53.1802 13.1793 52.8153C13.1739 51.6823 13.1684 50.5547 13.1629 49.4217C13.1302 43.2665 13.0975 37.1167 13.0594 30.9614C13.0539 30.0191 13.0485 29.0822 13.043 28.1398C13.043 27.911 13.0703 27.655 13.0376 27.4262C13.0321 27.3718 13.043 27.3173 13.0376 27.2628C13.0321 27.1757 12.8686 27.3881 13.0103 27.3445C13.3592 27.2465 13.7298 26.9523 14.0459 26.778C14.7109 26.4185 15.3758 26.0536 16.0408 25.6941C17.3544 24.9805 18.6625 24.2669 19.976 23.5533C20.2104 23.4281 20.4393 23.2973 20.6737 23.172C21.0552 22.9705 20.7119 22.3822 20.3249 22.5892Z" fill="#1D325F"/>
<path d="M31.5692 44.4049C33.4932 45.4235 35.4118 46.4367 37.3358 47.4553C38.0552 47.8366 38.8074 48.365 39.5759 48.6428C39.9793 48.7844 40.2027 48.5937 40.5298 48.4031C44.4159 46.1207 48.2967 43.8329 52.1829 41.5506C55.9492 39.3391 59.71 37.1221 63.4763 34.9106C63.8741 34.6763 64.3265 34.2842 63.7869 33.8484C63.509 33.6251 63.1438 33.4616 62.8386 33.2819C60.9091 32.1271 58.9742 30.9723 57.0447 29.8175C53.0713 27.4426 49.0925 25.0676 45.1191 22.6872C45.0428 22.6382 44.961 22.5946 44.8847 22.5456C44.5086 22.3223 44.1652 22.9106 44.5413 23.1339C47.8661 25.1221 51.1963 27.1103 54.5211 29.0985C56.6904 30.3949 58.8543 31.6913 61.0235 32.9823C61.6722 33.369 62.3262 33.7612 62.9748 34.148C63.0511 34.197 63.3128 34.4149 63.4054 34.404C63.5144 34.3931 63.5144 34.1807 63.3836 34.1752C63.1111 34.1643 62.4952 34.6981 62.2663 34.8289C61.5359 35.2592 60.8055 35.6895 60.0752 36.1198C57.895 37.3999 55.7148 38.6854 53.54 39.9655C49.365 42.4221 45.1899 44.8788 41.0148 47.33C40.7151 47.5043 40.0828 47.7276 39.8702 48.0054C39.8539 48.0272 39.8103 48.0381 39.7885 48.0545C40.0065 47.9074 39.9738 48.1416 39.8757 48.0163C39.7231 47.8202 39.2216 47.6677 39.0036 47.5533C36.818 46.3985 34.6378 45.2438 32.4521 44.089C32.2777 43.9964 32.1088 43.9038 31.9344 43.8166C31.5256 43.6096 31.1822 44.1979 31.5692 44.4049Z" fill="#1D325F"/>
<path d="M19.9597 14.0209C15.305 16.6627 10.6503 19.31 5.99555 21.9519C4.76919 22.6491 3.54284 23.3463 2.31648 24.0381C1.74963 24.3595 1.09012 24.6373 0.566875 25.0295C-0.228894 25.6232 0.806696 26.0862 1.26454 26.3477C2.49089 27.0558 3.7227 27.7639 4.94906 28.4721C7.46718 29.921 9.9853 31.3699 12.5034 32.8243C12.885 33.0422 13.2283 32.4539 12.8468 32.236C10.792 31.054 8.73714 29.872 6.68776 28.69C5.30879 27.8947 3.92982 27.1048 2.5563 26.3096C2.13661 26.0644 1.71148 25.8248 1.29179 25.5796C1.21003 25.5306 1.06832 25.4053 0.975661 25.3999C0.96476 25.3999 0.904805 25.3454 0.893904 25.3509C0.839399 25.3781 0.833949 25.6014 0.893904 25.6287C0.948409 25.6559 1.30814 25.3944 1.35719 25.3618C1.70057 25.1657 2.04395 24.975 2.38733 24.7789C3.53193 24.1307 4.67108 23.4825 5.81568 22.8343C8.76984 21.1566 11.7295 19.4789 14.6836 17.7957C16.5586 16.7335 18.4335 15.6659 20.3085 14.6037C20.6846 14.3913 20.3412 13.803 19.9597 14.0209Z" fill="#1D325F"/>
<path d="M40.0174 11.9237C42.0559 10.7036 44.0998 9.48344 46.1383 8.26328C47.5064 7.44622 48.8745 6.62915 50.2425 5.80663C50.6622 5.55607 51.0819 5.3055 51.5016 5.05493C51.5833 5.00591 51.7632 4.94599 51.8177 4.86973C51.8232 4.85883 51.8995 4.83705 51.8995 4.8207C51.9049 4.76079 51.7087 4.6355 51.6542 4.67908C51.6051 4.71176 51.6542 5.15298 51.6542 5.2129C51.6542 5.60509 51.6542 5.99728 51.6542 6.38947C51.6542 7.69678 51.6542 9.00954 51.6542 10.3168C51.6542 13.7104 51.6542 17.0985 51.6542 20.4921C51.6542 22.6437 51.6542 24.7953 51.6542 26.9414C51.6542 27.3772 52.3355 27.3827 52.3355 26.9414C52.3355 21.6033 52.3355 16.2651 52.3355 10.9269C52.3355 9.52157 52.3355 8.11621 52.3355 6.70541C52.3355 6.0572 52.4173 5.34363 52.3355 4.70087C52.2101 3.70949 51.2999 4.38494 50.8421 4.65729C49.6212 5.38721 48.4003 6.11712 47.1794 6.84703C44.6776 8.33954 42.1758 9.8375 39.674 11.33C39.298 11.5588 39.6413 12.1525 40.0174 11.9237Z" fill="#1D325F"/>
<path d="M24.7288 48.4684C29.2745 51.1103 33.8257 53.7521 38.3714 56.394C39.6141 57.113 40.8513 57.8375 42.094 58.5565C42.6991 58.9051 43.2986 59.33 43.9363 59.6241C44.792 60.0218 44.7757 59.1176 44.7702 58.5565C44.7593 57.2165 44.743 55.8765 44.7321 54.5365C44.7048 51.6332 44.6721 48.7299 44.6449 45.8266C44.6394 45.3908 43.9581 45.3854 43.9636 45.8266C43.9854 48.1961 44.0126 50.5656 44.0344 52.9296C44.0508 54.4603 44.0671 55.9909 44.078 57.5215C44.0835 57.9737 44.0889 58.4312 44.0944 58.8833C44.0944 58.9215 44.0671 59.1557 44.0998 59.1829C44.1761 59.2537 44.3505 59.1448 44.3178 59.0522C44.2851 58.9541 43.8436 58.7744 43.7564 58.7254C43.3913 58.5129 43.0261 58.3005 42.6554 58.088C41.5217 57.4289 40.388 56.7698 39.2543 56.1107C36.3383 54.4167 33.4169 52.7172 30.5009 51.0231C28.6913 49.9718 26.8872 48.9205 25.0777 47.8747C24.6907 47.6623 24.3473 48.2506 24.7288 48.4684Z" fill="#1D325F"/>
<path d="M44.4868 60L12.6451 55.4081L0 25.3999L0.158064 25.3128C0.850274 24.7136 14.7326 6.92329 20.036 0.103495L20.1123 0L20.2376 0.0163414L52.2483 4.17249L52.2973 4.29233L64.1194 34.3168L64.0431 34.4149L44.4868 60ZM12.9558 55.0104L44.296 59.5261L63.618 34.246L51.9321 4.57013L20.3085 0.468452C17.0382 4.67363 2.25105 23.6732 0.534147 25.5415L12.9558 55.0104Z" fill="url(#paint0_linear_1417_12330)"/>
<path d="M39.9356 48.8116L12.4434 27.2247L19.9978 0.174316L20.4229 0.294153L12.9394 27.0613L39.6031 47.9946L44.1652 14.6201L12.9176 27.1975L12.8468 26.7562L44.6993 13.9337L44.6503 14.3096L39.9356 48.8116Z" fill="url(#paint1_linear_1417_12330)"/>
<path d="M63.7106 34.4367L44.1434 14.2987L51.5234 4.74443L35.5262 8.95505L34.9921 8.64457L51.6705 4.25419C51.8177 4.21606 51.9649 4.27053 52.0466 4.39582C52.1284 4.5211 52.1229 4.67907 52.0303 4.7989L44.7212 14.2605L64.0268 34.1262L63.7106 34.4367Z" fill="url(#paint2_linear_1417_12330)"/>
<path d="M44.356 59.5642C44.187 59.5642 44.0344 59.4662 43.969 59.3028L39.6359 48.6591C37.2758 49.2528 13.2665 55.2937 12.8686 55.4135L12.8032 55.2065L12.5797 55.2338C12.5579 55.0377 12.5579 55.0377 13.8987 54.6945C14.6346 54.5093 15.6919 54.2424 16.9565 53.921C19.4855 53.2837 22.8539 52.434 26.2277 51.5842C32.97 49.8847 39.7122 48.1907 39.7122 48.1907L39.8975 48.1471L44.3724 59.1448L48.8363 43.4299L49.3323 43.1303L44.7539 59.2646C44.7048 59.4389 44.5577 59.5588 44.3724 59.5697C44.3724 59.5642 44.3615 59.5642 44.356 59.5642Z" fill="url(#paint3_linear_1417_12330)"/>
<path d="M12.4925 38.3586C0.119882 25.6178 0.168936 25.6505 0.250693 25.4598L0.305198 25.3291H0.452361C0.545019 25.3291 7.99037 26.3041 12.5306 26.8979L12.6614 27.3554C9.14587 26.8924 2.92143 26.0808 1.00831 25.8357C2.74701 27.6768 9.54921 34.6981 12.4925 37.7322V38.3586Z" fill="url(#paint4_linear_1417_12330)"/>
<path d="M71.3304 44.3885V17.5942H73.1181V42.9668H81.2284V44.3885H71.3304Z" fill="#1D325F"/>
<path d="M81.7571 44.3885L87.382 17.5942H89.4696L95.1272 44.3885H93.3067L91.9168 36.9805H84.9675L83.5449 44.3885H81.7571ZM85.2291 35.6568H91.6825L88.4394 19.7785L85.2291 35.6568Z" fill="#1D325F"/>
<path d="M103.93 44.3885V17.5942H113.163V19.0159H105.717V29.8012H112.138V31.1902H105.717V44.3885H103.93Z" fill="#1D325F"/>
<path d="M122.167 44.7535C120.423 44.7535 119.071 44.4049 118.112 43.7131C117.153 43.0213 116.482 42.0735 116.112 40.8697C115.735 39.6659 115.55 38.3041 115.55 36.7844V25.0731C115.55 23.5533 115.746 22.2079 116.144 21.0368C116.542 19.8711 117.218 18.956 118.177 18.2914C119.137 17.6323 120.466 17.3 122.167 17.3C123.868 17.3 125.197 17.6323 126.157 18.2914C127.116 18.9505 127.797 19.8711 128.195 21.0368C128.593 22.2079 128.789 23.5533 128.789 25.0731V36.8171C128.789 38.3368 128.604 39.6931 128.228 40.8861C127.852 42.079 127.187 43.0213 126.228 43.7131C125.263 44.4049 123.911 44.7535 122.167 44.7535ZM122.167 43.2665C123.448 43.2665 124.434 43.0159 125.127 42.5039C125.819 41.9973 126.304 41.2837 126.566 40.3686C126.827 39.4535 126.963 38.3913 126.963 37.1766V24.8062C126.963 23.5915 126.833 22.5347 126.566 21.6305C126.298 20.7263 125.824 20.0291 125.143 19.5279C124.462 19.0322 123.464 18.7817 122.167 18.7817C120.886 18.7817 119.9 19.0322 119.202 19.5279C118.51 20.0236 118.025 20.7263 117.763 21.6305C117.496 22.5347 117.365 23.5915 117.365 24.8062V37.1766C117.365 38.3913 117.496 39.4535 117.763 40.3686C118.03 41.2837 118.51 41.9973 119.202 42.5039C119.894 43.0104 120.886 43.2665 122.167 43.2665Z" fill="#1D325F"/>
<path d="M132.692 44.3885V17.5942H139.178C140.769 17.5942 141.985 17.8883 142.835 18.4712C143.685 19.054 144.269 19.8493 144.59 20.8516C144.912 21.8538 145.07 22.9759 145.07 24.207C145.07 25.1984 144.966 26.1462 144.754 27.0504C144.541 27.9546 144.16 28.7226 143.593 29.3491C143.031 29.9755 142.208 30.3786 141.129 30.5583L145.435 44.3831H143.647L139.478 30.8851H134.48V44.3831H132.692V44.3885ZM134.48 29.507H139.112C140.263 29.507 141.129 29.2946 141.729 28.8643C142.323 28.4339 142.737 27.8239 142.971 27.0286C143.2 26.2333 143.32 25.2964 143.32 24.2179C143.32 22.5184 143.037 21.2274 142.475 20.345C141.914 19.4625 140.78 19.0213 139.085 19.0213H134.485V29.507H134.48Z" fill="#1D325F"/>
<path d="M148.678 44.3885L149.474 17.5942H151.262L156.919 41.7739L162.68 17.5942H164.534L165.297 44.3885H163.743L163.084 21.9301L157.622 44.3885H156.298L150.902 21.9628L150.237 44.3885H148.678Z" fill="#1D325F"/>
<path d="M168.005 44.3885L173.63 17.5942H175.718L181.376 44.3885H179.555L178.165 36.9805H171.216L169.793 44.3885H168.005ZM171.483 35.6568H177.936L174.693 19.7785L171.483 35.6568Z" fill="#1D325F"/>
<path d="M196.043 44.7535C194.342 44.7535 193.029 44.4049 192.102 43.7131C191.175 43.0213 190.532 42.0572 190.167 40.8207C189.802 39.5842 189.622 38.1843 189.622 36.621V25.2365C189.622 23.6732 189.802 22.2951 190.167 21.1021C190.532 19.9092 191.186 18.9778 192.135 18.3078C193.083 17.6378 194.418 17.3 196.141 17.3C197.705 17.3 198.937 17.6105 199.831 18.2261C200.725 18.8416 201.362 19.724 201.749 20.8734C202.136 22.0227 202.327 23.379 202.327 24.9424V25.8684H200.605V24.8389C200.605 23.5152 200.474 22.4094 200.207 21.5161C199.94 20.6228 199.487 19.9473 198.85 19.4843C198.212 19.0213 197.307 18.7926 196.135 18.7926C194.833 18.7926 193.841 19.0649 193.154 19.6042C192.473 20.1434 192.015 20.8951 191.78 21.8538C191.552 22.8125 191.432 23.9237 191.432 25.1766V36.8552C191.432 38.1571 191.562 39.2846 191.83 40.2433C192.097 41.202 192.571 41.9483 193.252 42.4766C193.933 43.005 194.909 43.2719 196.163 43.2719C197.356 43.2719 198.272 43.0213 198.926 42.5093C199.575 42.0027 200.027 41.2728 200.283 40.325C200.539 39.3772 200.665 38.2551 200.665 36.9532V33.0095H196.397V31.6205H202.354V44.3886H201.199L200.932 41.3763C200.599 42.4113 200.054 43.2338 199.291 43.8384C198.539 44.4485 197.454 44.7535 196.043 44.7535Z" fill="#1D325F"/>
<path d="M206.568 44.3885V17.5942H213.054C214.645 17.5942 215.861 17.8883 216.711 18.4712C217.561 19.054 218.144 19.8493 218.466 20.8516C218.788 21.8538 218.946 22.9759 218.946 24.207C218.946 25.1984 218.842 26.1462 218.63 27.0504C218.422 27.9546 218.035 28.7226 217.469 29.3491C216.907 29.9755 216.084 30.3786 215.005 30.5583L219.305 44.3831H217.518L213.348 30.8851H208.35V44.3831H206.568V44.3885ZM208.355 29.507H212.988C214.133 29.507 215.01 29.2946 215.605 28.8643C216.199 28.4339 216.613 27.8239 216.847 27.0286C217.082 26.2333 217.196 25.2964 217.196 24.2179C217.196 22.5184 216.913 21.2274 216.351 20.345C215.79 19.4625 214.656 19.0213 212.961 19.0213H208.361V29.507H208.355Z" fill="#1D325F"/>
<path d="M221.458 44.3885L227.083 17.5942H229.171L234.828 44.3885H233.008L231.618 36.9805H224.669L223.246 44.3885H221.458ZM224.936 35.6568H231.389L228.146 19.7785L224.936 35.6568Z" fill="#1D325F"/>
<path d="M237.875 44.3885V17.5942H247.108V19.0159H239.663V29.8012H246.084V31.1902H239.663V44.3885H237.875Z" fill="#1D325F"/>
<path d="M250.09 44.3885V17.5942H251.877V44.3885H250.09Z" fill="#1D325F"/>
<path d="M262.337 44.7535C260.571 44.7535 259.219 44.3886 258.282 43.6641C257.344 42.9342 256.696 41.9591 256.347 40.739C255.993 39.5134 255.818 38.1625 255.818 36.6863V25.3019C255.818 23.7603 256.003 22.3877 256.38 21.1838C256.756 19.98 257.415 19.0322 258.363 18.3404C259.312 17.6487 260.636 17.3 262.337 17.3C263.901 17.3 265.128 17.6105 266.01 18.2261C266.893 18.8416 267.52 19.7186 267.896 20.857C268.272 21.9955 268.458 23.3191 268.458 24.8443V26.2006H266.735V24.8389C266.735 23.5588 266.615 22.4748 266.37 21.5815C266.125 20.6882 265.689 20.0018 265.046 19.5116C264.403 19.0268 263.503 18.7817 262.331 18.7817C261.051 18.7817 260.069 19.0486 259.388 19.5769C258.707 20.1053 258.238 20.8461 257.998 21.7939C257.753 22.7417 257.633 23.842 257.633 25.1003V36.9424C257.633 38.266 257.764 39.3936 258.031 40.3359C258.298 41.2728 258.772 41.9973 259.454 42.5039C260.135 43.0104 261.1 43.2665 262.331 43.2665C263.525 43.2665 264.441 43.0159 265.078 42.5039C265.716 41.9973 266.152 41.2837 266.387 40.3686C266.615 39.4535 266.735 38.3913 266.735 37.1766V35.5533H268.458V36.877C268.458 38.3967 268.283 39.7531 267.929 40.946C267.575 42.1389 266.959 43.0704 266.076 43.7404C265.193 44.4158 263.945 44.7535 262.337 44.7535Z" fill="#1D325F"/>
<path d="M270.643 44.3885L276.268 17.5942H278.356L284.013 44.3885H282.193L280.803 36.9805H273.854L272.431 44.3885H270.643ZM274.121 35.6568H280.574L277.331 19.7785L274.121 35.6568Z" fill="#1D325F"/>
<path d="M285 50.2279H71.4285V51.4153H285V50.2279Z" fill="url(#paint5_linear_1417_12330)"/>
</g>
<defs>
<linearGradient id="paint0_linear_1417_12330" x1="0" y1="29.9994" x2="64.1171" y2="29.9994" gradientUnits="userSpaceOnUse">
<stop offset="0.00372439" stop-color="#739FFF"/>
<stop offset="1" stop-color="#E6B850"/>
</linearGradient>
<linearGradient id="paint1_linear_1417_12330" x1="12.4413" y1="24.4919" x2="44.7001" y2="24.4919" gradientUnits="userSpaceOnUse">
<stop offset="0.00372439" stop-color="#739FFF"/>
<stop offset="1" stop-color="#E6B850"/>
</linearGradient>
<linearGradient id="paint2_linear_1417_12330" x1="34.9918" y1="19.3389" x2="64.0251" y2="19.3389" gradientUnits="userSpaceOnUse">
<stop offset="0.00372439" stop-color="#739FFF"/>
<stop offset="1" stop-color="#E6B850"/>
</linearGradient>
<linearGradient id="paint3_linear_1417_12330" x1="12.5785" y1="51.3474" x2="49.3363" y2="51.3474" gradientUnits="userSpaceOnUse">
<stop offset="0.00372439" stop-color="#739FFF"/>
<stop offset="1" stop-color="#E6B850"/>
</linearGradient>
<linearGradient id="paint4_linear_1417_12330" x1="0.236686" y1="31.8422" x2="12.6629" y2="31.8422" gradientUnits="userSpaceOnUse">
<stop offset="0.00372439" stop-color="#739FFF"/>
<stop offset="1" stop-color="#E6B850"/>
</linearGradient>
<linearGradient id="paint5_linear_1417_12330" x1="71.4312" y1="50.8213" x2="285.001" y2="50.8213" gradientUnits="userSpaceOnUse">
<stop offset="0.00372439" stop-color="#739FFF"/>
<stop offset="1" stop-color="#E6B850"/>
</linearGradient>
<clipPath id="clip0_1417_12330">
<rect width="285" height="60" fill="white"/>
</clipPath>
</defs>
</svg>
