<svg width="19" height="21" viewBox="0 0 19 21" fill="none" xmlns="http://www.w3.org/2000/svg">
<g clip-path="url(#clip0_656_11583)">
<path d="M7.64941 12.0176C7.64941 12.8092 7.0752 13.0594 6.36973 13.0594H4.51992V10.8896H6.40664C7.16953 10.8938 7.64941 11.2096 7.64941 12.0176V12.0176ZM7.33359 8.64199C7.33359 7.91602 6.77168 7.74375 6.14824 7.74375H4.52402V9.58125H6.27539C6.89473 9.58125 7.33359 9.31055 7.33359 8.64199V8.64199ZM12.76 9.59355C12.0094 9.59355 11.509 10.0611 11.4598 10.8117H14.0109C13.9412 10.0529 13.5475 9.59355 12.76 9.59355ZM18.375 3.28125V17.7188C18.375 18.8057 17.4932 19.6875 16.4062 19.6875H1.96875C0.881836 19.6875 0 18.8057 0 17.7188V3.28125C0 2.19434 0.881836 1.3125 1.96875 1.3125H16.4062C17.4932 1.3125 18.375 2.19434 18.375 3.28125ZM11.1439 7.58789H14.335V6.8127H11.1439V7.58789ZM9.38027 12.1119C9.38027 11.1234 8.9127 10.2703 7.94473 9.99551C8.6502 9.65918 9.01934 9.26953 9.01934 8.47793C9.01934 6.91113 7.85039 6.52969 6.50098 6.52969H2.78906V14.4047H6.60762C8.03906 14.3965 9.38027 13.7115 9.38027 12.1119V12.1119ZM15.5859 11.5049C15.5859 9.81914 14.5975 8.4123 12.8133 8.4123C11.0742 8.4123 9.89707 9.7166 9.89707 11.4311C9.89707 13.207 11.0168 14.4252 12.8133 14.4252C14.175 14.4252 15.0568 13.8141 15.4834 12.5057H14.1012C13.9494 12.9937 13.3383 13.248 12.8625 13.248C11.9438 13.248 11.4639 12.7107 11.4639 11.8002H15.5736C15.5777 11.7059 15.5859 11.6033 15.5859 11.5049Z" fill="#F0F0F0"/>
</g>
<defs>
<clipPath id="clip0_656_11583">
<rect width="18.375" height="21" fill="white"/>
</clipPath>
</defs>
</svg>
