<svg width="14" height="20" viewBox="0 0 14 20" fill="none" xmlns="http://www.w3.org/2000/svg">
<g clip-path="url(#clip0_722_11589)">
<path d="M3.33468 20.0002C5.17468 20.0002 6.66801 18.5068 6.66801 16.6668V13.3335H3.33468C1.49468 13.3335 0.00134277 14.8268 0.00134277 16.6668C0.00134277 18.5068 1.49468 20.0002 3.33468 20.0002Z" fill="#0ACF83"/>
<path d="M0.00134277 9.99984C0.00134277 8.15984 1.49468 6.6665 3.33468 6.6665H6.66801V13.3332H3.33468C1.49468 13.3332 0.00134277 11.8398 0.00134277 9.99984Z" fill="#A259FF"/>
<path d="M0.00134277 3.33333C0.00134277 1.49333 1.49468 0 3.33468 0H6.66801V6.66667H3.33468C1.49468 6.66667 0.00134277 5.17333 0.00134277 3.33333Z" fill="#F24E1E"/>
<path d="M6.66797 0H10.0013C11.8413 0 13.3346 1.49333 13.3346 3.33333C13.3346 5.17333 11.8413 6.66667 10.0013 6.66667H6.66797V0Z" fill="#FF7262"/>
<path d="M13.3346 9.99984C13.3346 11.8398 11.8413 13.3332 10.0013 13.3332C8.1613 13.3332 6.66797 11.8398 6.66797 9.99984C6.66797 8.15984 8.1613 6.6665 10.0013 6.6665C11.8413 6.6665 13.3346 8.15984 13.3346 9.99984Z" fill="#1ABCFE"/>
</g>
<defs>
<clipPath id="clip0_722_11589">
<rect width="13.336" height="20" fill="white"/>
</clipPath>
</defs>
</svg>
