<svg width="21" height="20" viewBox="0 0 21 20" fill="none" xmlns="http://www.w3.org/2000/svg">
<g clip-path="url(#clip0_723_11592)">
<path d="M10.1521 0C4.54294 0 0 4.54294 0 10.1521C0 14.9231 3.27372 18.8828 7.69051 19.9991C7.63954 19.8721 7.61448 19.6941 7.61448 19.517V17.7907H6.34526C5.6601 17.7907 5.02506 17.4866 4.74598 16.9276C4.41593 16.3185 4.36496 15.3793 3.52773 14.7952C3.27372 14.5922 3.47676 14.3891 3.75583 14.4142C4.28892 14.5663 4.72006 14.9222 5.12614 15.4545C5.53223 15.9876 5.71021 16.1146 6.4714 16.1146C6.82651 16.1146 7.38465 16.0895 7.89269 16.0126C8.17176 15.3015 8.65388 14.6674 9.23795 14.3632C5.83722 13.9571 4.21289 12.2818 4.21289 9.99741C4.21289 9.00726 4.64403 8.06808 5.35511 7.25592C5.12701 6.46881 4.82201 4.84448 5.45706 4.2103C6.9803 4.2103 7.89355 5.20045 8.12165 5.4536C8.88284 5.19959 9.72093 5.04752 10.5832 5.04752C11.4714 5.04752 12.2836 5.19959 13.0448 5.4536C13.2729 5.19959 14.187 4.2103 15.7093 4.2103C16.3185 4.81942 16.0394 6.46881 15.7854 7.25592C16.4965 8.04303 16.9025 9.00726 16.9025 9.99741C16.9025 12.2818 15.3033 13.9571 11.9285 14.3123C12.8676 14.7944 13.5277 16.1647 13.5277 17.1799V19.492C13.5277 19.568 13.5027 19.644 13.5027 19.7201C17.4616 18.3497 20.3041 14.5939 20.3041 10.1521C20.3041 4.54294 15.7612 0 10.1521 0Z" fill="black"/>
</g>
<defs>
<clipPath id="clip0_723_11592">
<rect width="20.3041" height="20" fill="white"/>
</clipPath>
</defs>
</svg>
