<svg width="191" height="40" viewBox="0 0 191 40" fill="none" xmlns="http://www.w3.org/2000/svg">
<path d="M66.836 25.4182L66.8991 25.449L67.0116 25.5033C67.1552 25.5716 67.3001 25.6394 67.4463 25.7044L67.5382 25.7453C67.706 25.8189 67.8748 25.8889 68.0456 25.9563L68.1692 26.0047C68.3269 26.0662 68.4872 26.1258 68.6478 26.1823L68.708 26.2029C68.8843 26.2644 69.0622 26.3217 69.2418 26.3776L69.371 26.4159C69.5535 26.4712 69.7337 26.5369 69.9221 26.5719C81.8789 28.752 85.3517 19.3865 85.3517 19.3865C82.4347 23.1868 77.257 24.1893 72.3512 23.0733C72.1654 23.0314 71.9848 22.9732 71.8036 22.9195L71.6672 22.8783C71.4905 22.8241 71.3147 22.7669 71.1399 22.7069L71.0676 22.6807C70.9119 22.6256 70.7569 22.5681 70.6028 22.5084L70.4727 22.4573C70.3041 22.391 70.1368 22.3214 69.9709 22.2486L69.8705 22.2042C69.7286 22.1402 69.5875 22.0745 69.4472 22.0072L69.3245 21.9484C69.2146 21.8947 69.1057 21.8375 68.9971 21.7815L68.7786 21.6671C68.6466 21.5961 68.5158 21.5227 68.3864 21.4469L68.2539 21.373C68.0819 21.2712 67.9115 21.1667 67.7427 21.0596L67.605 20.9681C67.4824 20.8894 67.3612 20.8089 67.2412 20.7263L67.1241 20.6439C67.0083 20.5621 66.8939 20.4794 66.7804 20.3953L66.6279 20.2798C66.5235 20.2005 66.4202 20.1198 66.3178 20.0378L66.1795 19.9266C66.0493 19.8197 65.9204 19.7112 65.7928 19.6011L65.7506 19.5654C65.6129 19.4449 65.4773 19.322 65.3437 19.1968L65.2293 19.0866C65.1301 18.9927 65.033 18.8978 64.9372 18.8007L64.8227 18.6862C64.7013 18.5619 64.5819 18.4356 64.4645 18.3074L64.4468 18.2885C64.3231 18.153 64.2019 18.0151 64.0834 17.875L63.9882 17.7618C63.8999 17.6555 63.8123 17.5476 63.7269 17.4386L63.631 17.3196C63.5285 17.187 63.4278 17.053 63.3291 16.9176C60.6057 13.2024 59.627 8.07837 61.8039 3.87024L59.8743 6.3176C57.4018 9.87088 57.7099 14.4941 59.5982 18.2701L59.7366 18.5387L59.8252 18.7088L59.8802 18.8066L59.9787 18.9829C60.0372 19.0862 60.0971 19.189 60.1586 19.2917L60.2616 19.4614C60.3296 19.5713 60.3993 19.6799 60.4709 19.7885L60.5599 19.9266C60.6584 20.0731 60.7591 20.2196 60.8628 20.3636L60.8716 20.375L60.9227 20.444C61.0126 20.568 61.1052 20.6903 61.1987 20.8114L61.3027 20.9435C61.3862 21.0485 61.4715 21.1532 61.5579 21.2572L61.6554 21.3733C61.7715 21.5104 61.8899 21.6465 62.0109 21.7796L62.0181 21.7871L62.0319 21.8022C62.1496 21.931 62.2706 22.0566 62.393 22.1829L62.5088 22.2997C62.6036 22.3952 62.6998 22.4891 62.7973 22.5826L62.9153 22.6948C63.0452 22.8171 63.1764 22.9372 63.3105 23.0549L63.317 23.0599L63.3857 23.1187C63.5038 23.2208 63.6242 23.3225 63.7452 23.4223L63.894 23.5407C63.9928 23.6198 64.0929 23.698 64.1937 23.7749L64.3536 23.8966C64.4648 23.9783 64.5767 24.0588 64.6895 24.1376L64.8122 24.2247L64.8459 24.2485C64.9532 24.3225 65.0628 24.3931 65.1723 24.4641L65.3136 24.5583C65.4814 24.6646 65.6522 24.7696 65.8246 24.871L65.9659 24.9508C66.0928 25.0238 66.22 25.0954 66.3492 25.1654L66.5612 25.2753L66.836 25.4182V25.4182ZM68.0439 13.3826C68.3118 13.7666 68.6085 14.2233 68.9641 14.532C69.0929 14.674 69.2277 14.812 69.3651 14.9484L69.4711 15.0525C69.6049 15.182 69.7406 15.3092 69.8806 15.4332L69.8976 15.4476L69.9015 15.4518C70.0569 15.5879 70.2172 15.7188 70.3801 15.8476L70.489 15.9327C70.6526 16.058 70.8191 16.181 70.9898 16.2984L71.0045 16.3092L71.2328 16.4596L71.3414 16.5316C71.4634 16.6095 71.5868 16.686 71.7127 16.7586L71.765 16.789C71.8733 16.8515 71.9832 16.913 72.0931 16.9725L72.2096 17.0337L72.4392 17.1524L72.4738 17.1681C72.6315 17.2457 72.7905 17.3202 72.9527 17.3912L73.0584 17.4347C73.1879 17.4897 73.3191 17.5436 73.4506 17.594L73.6187 17.6555C73.7384 17.7 73.8581 17.7406 73.9792 17.7808L74.1424 17.8331C74.3144 17.8864 74.4842 17.9538 74.6634 17.9836C83.8948 19.5134 86.0262 12.4052 86.0262 12.4052C84.1048 15.1722 80.3844 16.492 76.4141 15.4617C76.2386 15.4156 76.0643 15.3652 75.8914 15.3105L75.734 15.2598C75.6114 15.2203 75.4894 15.1781 75.3683 15.1339L75.2035 15.0724C75.0714 15.0217 74.9401 14.9688 74.8097 14.9138L74.7037 14.8686C74.5413 14.798 74.3808 14.7233 74.2222 14.6446L73.9805 14.5216L73.8411 14.4499C73.7384 14.3943 73.6364 14.3361 73.5356 14.2776L73.4627 14.236C73.3379 14.1632 73.2144 14.088 73.0924 14.0106L72.9809 13.9357L72.7414 13.7774C72.5721 13.66 72.4058 13.5384 72.2426 13.4127L72.1304 13.3241C70.3925 11.9525 69.0151 10.0769 68.3599 7.95048C67.6737 5.74583 67.8215 3.27034 69.0105 1.26162L67.5497 3.32431C65.7618 5.89695 65.8589 9.34163 67.2537 12.0628C67.4869 12.5201 67.751 12.961 68.0439 13.3826V13.3826ZM77.7742 10.1996L78.0035 10.2791L78.1045 10.3112C78.2135 10.3452 78.3211 10.3851 78.4333 10.406C83.5305 11.3909 84.9134 7.7902 85.2814 7.2603C84.0702 9.00406 82.035 9.42242 79.5376 8.81631C79.3331 8.76428 79.1313 8.70205 78.9331 8.62986C78.689 8.54311 78.4496 8.44375 78.2157 8.3322C77.772 8.1187 77.3505 7.86153 76.9577 7.5645C74.723 5.86849 73.3348 2.63446 74.793 0L74.004 1.08728C72.9501 2.63871 72.8464 4.56533 73.5778 6.27802C74.3491 8.09669 75.9297 9.52284 77.7742 10.1996V10.1996ZM72.8539 31.0689H71.4716C71.4325 31.0704 71.3949 31.0845 71.3645 31.1091C71.334 31.1336 71.3123 31.1674 71.3025 31.2053L70.8119 33.4753L70.3212 35.7454C70.3116 35.7833 70.2899 35.8171 70.2595 35.8417C70.2291 35.8663 70.1915 35.8803 70.1524 35.8818H69.1741C68.2062 35.8818 68.3181 35.2122 68.5163 34.2951L68.5222 34.2673L68.5437 34.1515L68.5477 34.1299L68.5918 33.8944L68.6393 33.6422L68.6896 33.3854L68.9127 32.2955L69.1361 31.2056C69.1404 31.189 69.1407 31.1715 69.137 31.1548C69.1333 31.138 69.1257 31.1223 69.1149 31.109C69.1041 31.0956 69.0902 31.085 69.0745 31.078C69.0589 31.071 69.0418 31.0678 69.0246 31.0686H67.606C67.5669 31.07 67.5293 31.0841 67.499 31.1088C67.4687 31.1334 67.4472 31.1673 67.4378 31.2053L67.1326 32.6524L66.8278 34.0998L66.8271 34.1017L66.799 34.2365C66.4477 35.8403 66.5406 37.3701 68.4502 37.4182L68.5058 37.4192H71.503C71.5421 37.4177 71.5797 37.4036 71.6101 37.379C71.6405 37.3545 71.6622 37.3207 71.6718 37.2828L72.3181 34.2444L72.9645 31.2056C72.9805 31.1304 72.9308 31.0692 72.8539 31.0689V31.0689ZM58.0507 31.0529H56.533C56.4938 31.0544 56.4561 31.0684 56.4254 31.0929C56.3948 31.1174 56.3727 31.151 56.3626 31.1889L56.2186 31.8242L56.0747 32.4594C56.058 32.5343 56.1068 32.5955 56.1836 32.5955H57.7132C57.7523 32.594 57.79 32.58 57.8205 32.5554C57.8511 32.5308 57.8728 32.497 57.8826 32.4591L58.0216 31.8242L58.1606 31.1893C58.1767 31.1143 58.1276 31.0529 58.0507 31.0529V31.0529ZM57.6105 33.0298H56.0806C56.0414 33.0314 56.0037 33.0455 55.9731 33.0699C55.9424 33.0944 55.9204 33.128 55.9102 33.1659L55.6953 34.1178L55.4807 35.0693L55.4208 35.3421L55.2144 36.3136L55.0084 37.2854C54.9923 37.3603 54.9593 37.4813 54.9348 37.554C54.9348 37.554 54.6489 38.4044 54.1684 38.3946L54.1082 38.3933L53.6925 38.3858H53.6921C53.6531 38.3867 53.6153 38.4001 53.5845 38.4241C53.5536 38.4481 53.5313 38.4813 53.5207 38.5189L53.3621 39.1858L53.2038 39.8525C53.1858 39.9271 53.2342 39.9886 53.3104 39.9899C53.5829 39.9931 54.1932 40 54.5625 40C55.7627 40 56.3956 39.335 56.8009 37.4215L57.2755 35.2253L57.7207 33.1656C57.7367 33.0913 57.687 33.0298 57.6105 33.0298V33.0298ZM85.7793 32.515L85.7158 32.253L85.6533 31.9848L85.6216 31.8493C85.4973 31.3662 85.1326 31.0878 84.3404 31.0878L83.1072 31.0865L81.9715 31.0849H80.6935C80.6545 31.0863 80.6169 31.1004 80.5866 31.125C80.5562 31.1496 80.5346 31.1834 80.5251 31.2213L80.4685 31.4882L80.4018 31.8035L80.3831 31.8922L79.8077 34.5875L79.2615 37.1461C79.2451 37.2213 79.2399 37.3135 79.2491 37.3508C79.2582 37.3884 79.4057 37.4192 79.4823 37.4192H80.635C80.7118 37.4192 80.809 37.4054 80.8509 37.3884C80.8927 37.3714 80.9546 37.2206 80.9699 37.1457L81.1747 36.1321L81.3798 35.118L81.3801 35.1164L81.4076 34.9813L81.6562 33.8168L81.8757 32.7884C81.8853 32.7506 81.907 32.7169 81.9373 32.6923C81.9676 32.6678 82.0051 32.6536 82.0441 32.652L85.6713 32.6504C85.7482 32.6511 85.7966 32.5899 85.7793 32.515V32.515ZM90.4486 30.1468L90.1693 30.1478H89.0084C88.9659 30.1502 88.9243 30.1617 88.8867 30.1816C88.849 30.2016 88.8161 30.2294 88.7902 30.2632L86.2228 34.0242C86.1796 34.0877 86.1302 34.0785 86.1132 34.0039L85.9242 33.1754C85.914 33.1374 85.8919 33.1038 85.8612 33.0793C85.8305 33.0548 85.7927 33.0408 85.7534 33.0393H84.1032C84.0263 33.0393 83.9809 33.0995 84.0018 33.1731L84.7414 35.7641C84.7623 35.838 84.7639 35.959 84.745 36.0336L84.4228 37.2874C84.4035 37.3619 84.4506 37.4225 84.5275 37.4225H86.1587C86.1982 37.4209 86.2361 37.407 86.2673 37.3828C86.2985 37.3585 86.3214 37.3252 86.3327 37.2874L86.6552 36.0336C86.6808 35.9452 86.7209 35.8618 86.774 35.7866L90.9419 30.2551C90.9883 30.1936 90.9631 30.1435 90.8866 30.1442L90.4486 30.1468V30.1468ZM77.3365 33.3913V33.39C77.3308 33.4295 77.3113 33.4657 77.2814 33.4921C77.2515 33.5185 77.2132 33.5335 77.1733 33.5342H75.0808C75.0082 33.5342 74.9716 33.4852 74.9824 33.4243L74.9843 33.4194L74.983 33.4201L74.984 33.4132L74.9935 33.3775C75.1934 32.8463 75.6003 32.4976 76.3653 32.4976C77.2269 32.4973 77.3951 32.918 77.3365 33.3913V33.3913ZM76.7225 30.976C74.0367 30.976 73.4002 32.6062 73.043 34.2519C72.6861 35.9292 72.7166 37.497 75.4962 37.497H75.8332L75.9169 37.4967H75.9365L76.2702 37.4957H76.276C77.0101 37.4928 77.7464 37.4872 78.0443 37.4849C78.0832 37.483 78.1203 37.4685 78.1503 37.4438C78.1803 37.4191 78.2015 37.3853 78.2108 37.3476L78.3234 36.7977L78.3453 36.6907L78.4794 36.0346C78.4837 36.0179 78.484 36.0005 78.4803 35.9838C78.4766 35.967 78.469 35.9513 78.4582 35.938C78.4473 35.9247 78.4335 35.9142 78.4178 35.9072C78.4021 35.9002 78.385 35.897 78.3679 35.8978H75.8691C74.8751 35.8978 74.58 35.6339 74.689 34.8573H78.6832L78.6828 34.8577L78.6855 34.8573C78.7171 34.856 78.7476 34.8455 78.7734 34.8273C78.7992 34.809 78.8192 34.7837 78.831 34.7543L78.8405 34.7196L78.8402 34.72C79.4332 32.4829 79.2631 30.9763 76.7225 30.976V30.976ZM64.0278 33.3828L63.9899 33.5166V33.5169L63.6883 34.5859L63.3867 35.6545C63.3744 35.6924 63.3507 35.7255 63.319 35.7496C63.2872 35.7736 63.2489 35.7873 63.2091 35.7889H61.6128C60.4019 35.7889 60.1069 34.8416 60.4019 33.4449C60.6966 32.0162 61.2746 31.1281 62.4666 31.0381C64.0955 30.9151 64.4213 32.0606 64.0278 33.3828V33.3828ZM65.1229 35.7068C65.1229 35.7068 65.8756 33.879 66.0463 32.8238C66.2796 31.411 65.5721 29.3614 62.8395 29.3614C60.1226 29.3614 58.9424 31.3178 58.4923 33.4449C58.0422 35.5874 58.632 37.466 61.3335 37.4506L63.4649 37.4427L65.4566 37.4355C65.4961 37.4336 65.534 37.4195 65.5652 37.3953C65.5965 37.3711 65.6195 37.3379 65.6313 37.3001L65.9783 35.9767C65.9976 35.9021 65.9508 35.8413 65.874 35.8406L65.5413 35.8386L65.2086 35.8367C65.1436 35.8364 65.1063 35.7938 65.1141 35.7379L65.1229 35.7068V35.7068ZM78.5733 34.4831C78.5733 34.4952 78.5709 34.5071 78.5664 34.5182C78.5618 34.5293 78.555 34.5394 78.5466 34.548C78.5381 34.5565 78.528 34.5632 78.5169 34.5679C78.5058 34.5725 78.4939 34.5749 78.4818 34.5749C78.4698 34.5749 78.4579 34.5726 78.4468 34.568C78.4357 34.5634 78.4256 34.5567 78.417 34.5482C78.4085 34.5397 78.4017 34.5296 78.3971 34.5185C78.3925 34.5074 78.3901 34.4955 78.3901 34.4835C78.39 34.4592 78.3997 34.4359 78.4168 34.4187C78.4339 34.4015 78.4572 34.3918 78.4815 34.3917C78.5058 34.3917 78.5291 34.4013 78.5463 34.4184C78.5635 34.4356 78.5732 34.4589 78.5733 34.4831Z" fill="#0868AC"/>
<g clip-path="url(#clip0_641_11661)">
<path d="M4.76212 7.29541C4.68068 4.95655 6.50295 2.7998 8.96609 2.7998H34.2057C36.6688 2.7998 38.4911 4.95655 38.4096 7.29541C38.3314 9.54212 38.433 12.4525 39.1654 14.8255C39.9002 17.2058 41.1393 18.7104 43.1686 18.9037V21.0959C41.1393 21.2892 39.9002 22.7938 39.1654 25.1741C38.433 27.5471 38.3314 30.4575 38.4096 32.7043C38.4911 35.0431 36.6688 37.1998 34.2057 37.1998H8.96609C6.50295 37.1998 4.68068 35.0431 4.76221 32.7043C4.84037 30.4575 4.73877 27.5471 4.00625 25.1741C3.27154 22.7938 2.02943 21.2892 0 21.0959V18.9037C2.02935 18.7104 3.27154 17.2058 4.00625 14.8255C4.73877 12.4525 4.84037 9.54212 4.76212 7.29541V7.29541Z" fill="url(#paint0_linear_641_11661)"/>
<g filter="url(#filter0_d_641_11661)">
<path d="M22.5205 29.1442C26.5083 29.1442 28.9113 27.1917 28.9113 23.9712C28.9113 21.5368 27.1967 19.7744 24.6507 19.4954V19.3939C26.5212 19.0896 27.9891 17.3526 27.9891 15.4127C27.9891 12.6487 25.8068 10.8481 22.4815 10.8481H14.9995V29.1442H22.5205ZM17.9092 13.1685H21.7801C23.8844 13.1685 25.0794 14.1067 25.0794 15.8057C25.0794 17.6189 23.6896 18.6332 21.1696 18.6332H17.9092V13.1685V13.1685ZM17.9092 26.824V20.8014H21.7541C24.5078 20.8014 25.9367 21.8157 25.9367 23.7937C25.9367 25.7716 24.5469 26.824 21.9229 26.824H17.9092V26.824Z" fill="url(#paint1_linear_641_11661)"/>
<path d="M22.5205 29.1442C26.5083 29.1442 28.9113 27.1917 28.9113 23.9712C28.9113 21.5368 27.1967 19.7744 24.6507 19.4954V19.3939C26.5212 19.0896 27.9891 17.3526 27.9891 15.4127C27.9891 12.6487 25.8068 10.8481 22.4815 10.8481H14.9995V29.1442H22.5205ZM17.9092 13.1685H21.7801C23.8844 13.1685 25.0794 14.1067 25.0794 15.8057C25.0794 17.6189 23.6896 18.6332 21.1696 18.6332H17.9092V13.1685V13.1685ZM17.9092 26.824V20.8014H21.7541C24.5078 20.8014 25.9367 21.8157 25.9367 23.7937C25.9367 25.7716 24.5469 26.824 21.9229 26.824H17.9092V26.824Z" stroke="white"/>
</g>
</g>
<path d="M120.8 23.0923C122.526 23.0923 123.925 21.6932 123.925 19.9673C123.925 18.2414 122.526 16.8423 120.8 16.8423C119.074 16.8423 117.675 18.2414 117.675 19.9673C117.675 21.6932 119.074 23.0923 120.8 23.0923Z" fill="#00D8FF"/>
<path d="M120.8 27.1326C117.044 27.2234 113.297 26.7171 109.7 25.6326C108.038 25.1058 106.488 24.276 105.129 23.1851C104.61 22.8124 104.178 22.3319 103.862 21.7765C103.547 21.2211 103.355 20.6041 103.3 19.9676C103.3 17.9013 105.57 15.8763 109.372 14.5513C113.066 13.3773 116.925 12.8083 120.8 12.8663C124.623 12.8129 128.431 13.3717 132.077 14.5213C133.678 15.0315 135.175 15.8212 136.5 16.8538C137.01 17.2091 137.436 17.6722 137.747 18.2103C138.058 18.7484 138.247 19.3484 138.3 19.9676C138.3 22.1151 135.762 24.2913 131.675 25.6438C128.147 26.6931 124.48 27.1951 120.8 27.1326V27.1326ZM120.8 14.3613C117.093 14.3118 113.401 14.8527 109.864 15.9638C106.364 17.1851 104.795 18.8551 104.795 19.9638C104.795 21.1238 106.481 22.9476 110.184 24.2138C113.625 25.2462 117.208 25.7267 120.8 25.6376C124.32 25.7005 127.83 25.2242 131.206 24.2251C135.05 22.9513 136.8 21.1251 136.8 19.9676C136.737 19.5704 136.592 19.1906 136.375 18.8521C136.158 18.5137 135.872 18.224 135.537 18.0013C134.352 17.0853 133.015 16.3854 131.586 15.9338C128.098 14.8385 124.456 14.3077 120.8 14.3613V14.3613Z" fill="#00D8FF"/>
<path d="M113.7 35.5536C113.117 35.567 112.541 35.4255 112.03 35.1436C110.24 34.1111 109.62 31.1336 110.371 27.1773C111.2 23.3912 112.635 19.764 114.621 16.4361V16.4361C116.485 13.0975 118.87 10.0785 121.687 7.49359C122.929 6.36198 124.361 5.45927 125.917 4.82734C126.48 4.56352 127.095 4.42676 127.716 4.42676C128.338 4.42676 128.952 4.56352 129.515 4.82734C131.376 5.89984 131.992 9.18484 131.124 13.4011C130.27 16.9818 128.872 20.4104 126.979 23.5673C125.181 26.8665 122.87 29.8592 120.134 32.4336C118.847 33.6096 117.354 34.5373 115.73 35.1698C115.08 35.4112 114.393 35.5409 113.7 35.5536V35.5536ZM115.916 17.1786C114.021 20.3653 112.646 23.8332 111.841 27.4523C111.15 31.0961 111.814 33.2873 112.779 33.8448C113.779 34.4236 116.206 33.8748 119.154 31.2998C121.766 28.8335 123.972 25.9688 125.687 22.8123C127.501 19.7942 128.842 16.5163 129.664 13.0923C130.481 9.12359 129.775 6.69359 128.772 6.11609C128.397 5.97213 127.995 5.90768 127.593 5.92683C127.191 5.94598 126.798 6.04831 126.437 6.22734C125.052 6.79903 123.778 7.61063 122.675 8.62484C119.983 11.1008 117.705 13.991 115.925 17.1861L115.916 17.1786Z" fill="#00D8FF"/>
<path d="M127.896 35.57C126.202 35.57 124.051 34.545 121.811 32.6187C118.945 30.0103 116.519 26.9555 114.627 23.5725V23.5725C112.666 20.2904 111.242 16.7157 110.41 12.9837C110.049 11.3418 109.982 9.64896 110.212 7.98372C110.266 7.36598 110.454 6.76744 110.764 6.2303C111.073 5.69317 111.497 5.23051 112.005 4.87497C113.864 3.79872 117.017 4.90497 120.236 7.76247C122.912 10.2902 125.184 13.2134 126.974 16.43C128.934 19.6354 130.373 23.1319 131.236 26.7887C131.613 28.4909 131.671 30.248 131.407 31.9712C131.345 32.6067 131.146 33.2212 130.823 33.7724C130.501 34.3237 130.063 34.7987 129.54 35.165C129.038 35.4434 128.47 35.5832 127.896 35.57V35.57ZM115.921 22.82C117.736 26.053 120.053 28.9767 122.786 31.4812C125.597 33.9 127.827 34.42 128.786 33.8562C129.786 33.275 130.524 30.9025 129.764 27.0637C128.931 23.5724 127.551 20.2349 125.675 17.175C123.967 14.0964 121.798 11.2973 119.244 8.87497C116.214 6.18497 113.756 5.58372 112.755 6.16372C112.443 6.41733 112.187 6.73288 112.003 7.09046C111.819 7.44804 111.711 7.83987 111.686 8.24122C111.487 9.72633 111.552 11.2349 111.877 12.6975C112.678 16.2664 114.043 19.6845 115.922 22.8225L115.921 22.82Z" fill="#00D8FF"/>
<path d="M170.74 0L151.92 6.62299L154.894 31.2797L170.76 39.9999L186.707 31.1615L189.68 6.50563L170.74 0Z" fill="#B3B3B3"/>
<path d="M187.803 7.93075L170.696 2.09717V37.9166L185.032 29.9825L187.803 7.93086V7.93075Z" fill="#AF2B2D"/>
<path d="M154.032 8.0359L156.58 30.0874L170.695 37.9164V2.09619L154.032 8.0359Z" fill="#DF2E31"/>
<path d="M174.661 19.9132L170.727 11.6976L167.263 19.9132H174.661ZM176.161 23.3678H165.732L163.399 29.2031L159.06 29.2834L170.696 3.39795L182.737 29.2833H178.715L176.161 23.3677V23.3678Z" fill="#F2F2F2"/>
<path d="M170.696 3.39795L170.727 11.6976L174.657 19.9195H170.704L170.696 23.3624L176.161 23.3678L178.715 29.2844L182.867 29.3614L170.696 3.39795V3.39795Z" fill="#B3B3B3"/>
<defs>
<filter id="filter0_d_641_11661" x="-1.50049" y="-1.65186" width="46.9117" height="51.2959" filterUnits="userSpaceOnUse" color-interpolation-filters="sRGB">
<feFlood flood-opacity="0" result="BackgroundImageFix"/>
<feColorMatrix in="SourceAlpha" type="matrix" values="0 0 0 0 0 0 0 0 0 0 0 0 0 0 0 0 0 0 127 0" result="hardAlpha"/>
<feOffset dy="4"/>
<feGaussianBlur stdDeviation="8"/>
<feColorMatrix type="matrix" values="0 0 0 0 0 0 0 0 0 0 0 0 0 0 0 0 0 0 0.15 0"/>
<feBlend mode="normal" in2="BackgroundImageFix" result="effect1_dropShadow_641_11661"/>
<feBlend mode="normal" in="SourceGraphic" in2="effect1_dropShadow_641_11661" result="shape"/>
</filter>
<linearGradient id="paint0_linear_641_11661" x1="6.4145" y1="3.71023" x2="44.1366" y2="33.654" gradientUnits="userSpaceOnUse">
<stop stop-color="#9013FE"/>
<stop offset="1" stop-color="#6610F2"/>
</linearGradient>
<linearGradient id="paint1_linear_641_11661" x1="16.3154" y1="12.0524" x2="24.7473" y2="26.3125" gradientUnits="userSpaceOnUse">
<stop stop-color="white"/>
<stop offset="1" stop-color="#F1E5FC"/>
</linearGradient>
<clipPath id="clip0_641_11661">
<rect width="43.1686" height="34.4" fill="white" transform="translate(0 2.7998)"/>
</clipPath>
</defs>
</svg>
