<svg width="177" height="40" viewBox="0 0 177 40" fill="none" xmlns="http://www.w3.org/2000/svg">
<path d="M1.63397 2.45996H37.5818V38.3239H1.63397V2.45996Z" fill="#210B00"/>
<path d="M1.63397 2.46004H37.5818V38.3239H1.63397V2.46004ZM0 39.9999H39.2158V0.78418H0V39.9999ZM25.6863 14.761C25.6863 14.627 25.7353 14.5599 25.8824 14.5599H28.4478C28.5784 14.5599 28.6438 14.6102 28.6438 14.761V27.9838C28.6438 28.1178 28.6111 28.1849 28.4478 28.1849H25.9151C25.7517 28.1849 25.7026 28.1011 25.7026 27.967V14.761H25.6863ZM25.5066 10.9568C25.5066 9.88421 26.2418 9.24739 27.1733 9.24739C28.17 9.24739 28.8399 9.93448 28.8399 10.9568C28.8399 12.0628 28.1373 12.6661 27.1406 12.6661C26.1928 12.6662 25.5066 12.0628 25.5066 10.9568ZM18.1536 20.2747C17.6962 18.4144 16.6177 14.3588 16.2092 12.398H16.1765C15.8333 14.3588 14.9674 17.677 14.2811 20.2747H18.1536ZM13.6111 22.9897L12.3203 28.0173C12.2876 28.1513 12.2386 28.1848 12.0752 28.1848H9.67324C9.50986 28.1848 9.47712 28.1345 9.50986 27.9335L14.1504 11.2751C14.232 10.9735 14.2811 10.7053 14.3137 9.88421C14.3137 9.76691 14.3627 9.71664 14.4444 9.71664H17.8758C17.9902 9.71664 18.0392 9.75016 18.0719 9.88421L23.268 27.967C23.3007 28.101 23.268 28.1848 23.1373 28.1848H20.4248C20.2941 28.1848 20.2124 28.1513 20.1798 28.0341L18.8399 22.9897H13.6111Z" fill="#FF7F18"/>
<g clip-path="url(#clip0_641_11660)">
<path d="M47.1241 1.68311H83.072V36.6505H47.1241V1.68311Z" fill="#001D26"/>
<path d="M47.1241 1.68328H83.072V36.6507H47.1241V1.68328ZM45.4902 38.2847H84.7059V0.0493164H45.4902V38.2847ZM71.9281 15.7356C70.6373 15.7356 70.1961 16.3892 70.1961 16.9284C70.1961 17.5166 70.4902 17.9251 72.2223 18.8238C74.7876 20.0657 75.5883 21.2585 75.5883 23.0069C75.5883 25.6212 73.5948 27.0265 70.8987 27.0265C69.4771 27.0265 68.2516 26.7323 67.549 26.3239C67.4347 26.2749 67.4183 26.1932 67.4183 26.0624V23.6605C67.4183 23.4971 67.5 23.448 67.6145 23.5298C68.6439 24.1997 69.8203 24.4938 70.8987 24.4938C72.1896 24.4938 72.7288 23.9546 72.7288 23.2193C72.7288 22.6311 72.353 22.1082 70.7026 21.2585C68.3823 20.1474 67.4183 19.02 67.4183 17.1409C67.4183 15.033 69.0687 13.2846 71.9281 13.2846C73.3334 13.2846 74.3138 13.4971 74.853 13.7422C74.9837 13.8238 75.0164 13.9545 75.0164 14.0689V16.3074C75.0164 16.4381 74.9347 16.5199 74.7712 16.4708C74.0523 16.0134 72.9902 15.7356 71.9281 15.7356ZM57.8758 17.6801C58.2516 17.7127 58.5458 17.7127 59.1994 17.7127C61.1112 17.7127 62.9085 17.0428 62.9085 14.4448C62.9085 12.3697 61.6177 11.3238 59.4445 11.3238C58.7909 11.3238 58.1699 11.3565 57.8758 11.3729V17.6801ZM54.9674 9.00356C54.9674 8.8892 55.1962 8.80744 55.3268 8.80744C56.3726 8.75843 57.9249 8.72576 59.5425 8.72576C64.0686 8.72576 65.8333 11.2094 65.8333 14.3794C65.8333 18.5297 62.8268 20.3108 59.134 20.3108C58.5131 20.3108 58.3007 20.2781 57.8595 20.2781V26.5526C57.8595 26.6833 57.8104 26.7487 57.6634 26.7487H55.1634C55.0327 26.7487 54.9673 26.6997 54.9673 26.5526V9.00356H54.9674Z" fill="#31C5F0"/>
</g>
<g clip-path="url(#clip1_641_11660)">
<path d="M92.6559 1.6792H129.518V37.5359H92.6559V1.6792Z" fill="url(#paint0_radial_641_11660)"/>
<path d="M92.6559 1.67943H129.518V37.5361H92.6559V1.67943ZM90.9803 39.2117H131.193V0.00390625H90.9803V39.2117ZM119.431 18.9041C120.286 18.9041 120.587 18.9041 120.671 18.8706C120.671 18.7533 120.704 18.6694 120.704 18.5857C120.704 17.6809 120.269 16.0054 118.526 16.0054C116.918 16.0054 116.231 17.4128 116.063 18.9041H119.431V18.9041ZM116.03 21.1995C116.063 23.4615 117.136 24.9863 119.682 24.9863C120.671 24.9863 121.525 24.8523 122.414 24.4669C122.531 24.4167 122.615 24.4334 122.615 24.5842V26.6786C122.615 26.8462 122.564 26.93 122.447 27.0138C121.559 27.4493 120.453 27.6504 119.079 27.6504C114.656 27.6504 112.997 24.3832 112.997 20.7472C112.997 16.793 115.041 13.5592 118.644 13.5592C122.296 13.5592 123.57 16.6254 123.57 19.122C123.57 19.9263 123.52 20.5797 123.436 20.8981C123.402 21.0321 123.352 21.0824 123.218 21.116C122.883 21.1662 121.894 21.2332 120.42 21.2332H116.03V21.1995ZM107.049 19.4905C106.58 17.6306 105.44 13.5758 105.021 11.6154H104.988C104.636 13.5758 103.714 16.8933 103.028 19.4905H107.049V19.4905ZM102.34 22.2049L101.017 27.2148C100.983 27.3487 100.933 27.3991 100.765 27.3991H98.3024C98.1349 27.3991 98.1013 27.3488 98.1349 27.1478L102.893 10.5096C102.977 10.208 103.027 9.9734 103.061 9.13567C103.061 9.0184 103.111 8.96814 103.195 8.96814H106.714C106.831 8.96814 106.881 9.00165 106.915 9.13567L112.243 27.1813C112.276 27.3152 112.243 27.3991 112.109 27.3991H109.344C109.21 27.3991 109.126 27.3488 109.093 27.2316L107.719 22.205H102.34V22.2049Z" fill="#D8A1FF"/>
</g>
<g clip-path="url(#clip2_641_11660)">
<path d="M138.889 1.68311H174.837V36.6505H138.889V1.68311Z" fill="#290132"/>
<path d="M138.889 1.68328H174.837V36.6507H138.889V1.68328ZM137.255 38.2847H176.471V0.0493164H137.255V38.2847ZM160.784 16.1931C160.784 15.997 160.784 15.5232 160.703 14.6081C160.703 14.4774 160.719 14.4447 160.833 14.3957C161.83 13.9872 164.167 13.2683 166.814 13.2683C166.944 13.2683 167.01 13.301 167.01 13.4317V15.801C167.01 15.9317 166.961 15.9643 166.83 15.9643C165.801 15.9153 164.314 16.046 163.742 16.2911V26.5853C163.742 26.7159 163.693 26.7814 163.546 26.7814H160.98C160.85 26.7814 160.784 26.7323 160.784 26.5853V16.1931H160.784ZM150.327 17.6801C150.703 17.7127 150.997 17.7127 151.65 17.7127C153.562 17.7127 155.36 17.0428 155.36 14.4448C155.36 12.3697 154.085 11.3238 151.895 11.3238C151.242 11.3238 150.621 11.3565 150.327 11.3729V17.6801ZM147.435 9.00356C147.435 8.8892 147.467 8.80744 147.598 8.80744C148.644 8.75843 150.18 8.72576 151.797 8.72576C156.324 8.72576 158.301 11.2094 158.301 14.3957C158.301 18.546 155.294 20.3271 151.601 20.3271C150.98 20.3271 150.768 20.2944 150.327 20.2944V26.569C150.327 26.6997 150.278 26.765 150.131 26.765H147.614C147.484 26.765 147.418 26.716 147.418 26.569V9.00356H147.435Z" fill="#E579FF"/>
</g>
<defs>
<radialGradient id="paint0_radial_641_11660" cx="0" cy="0" r="1" gradientUnits="userSpaceOnUse" gradientTransform="translate(104.796 9.71471) scale(28.0151 27.1237)">
<stop stop-color="#442F55" stop-opacity="0.98"/>
<stop offset="1" stop-color="#12002C"/>
</radialGradient>
<clipPath id="clip0_641_11660">
<rect width="39.2157" height="39.2157" fill="white" transform="translate(45.4902)"/>
</clipPath>
<clipPath id="clip1_641_11660">
<rect width="40.213" height="39.2157" fill="white" transform="translate(90.9803)"/>
</clipPath>
<clipPath id="clip2_641_11660">
<rect width="39.2157" height="39.2157" fill="white" transform="translate(137.255)"/>
</clipPath>
</defs>
</svg>
