<svg width="190" height="40" viewBox="0 0 250 53" fill="none" xmlns="http://www.w3.org/2000/svg">
<g clip-path="url(#clip0_546_11536)">
<path d="M18.0583 19.9489C18.0583 16.671 18.0583 13.3932 18.0583 10.1154C18.0583 7.91265 18.0583 5.70514 18.0583 3.5024C18.0583 2.78567 18.0583 2.06895 18.0583 1.35222C18.0583 1.18499 18.1013 0.950856 18.0583 0.788398C18.0535 0.769285 18.0727 0.6785 18.0583 0.664166C18.0296 0.635497 17.8384 0.750173 17.8432 0.774064C17.8575 0.874405 18.4982 1.15154 18.5795 1.19932C19.1484 1.52902 19.7221 1.85871 20.2911 2.1884C22.0888 3.22527 23.8865 4.26691 25.6842 5.30377C29.4565 7.48262 33.224 9.66147 36.9963 11.8403C37.484 12.1222 37.9717 12.4041 38.4641 12.686C38.5598 12.7434 38.6936 12.8581 38.8036 12.882C38.9375 12.9106 38.794 12.7816 38.7892 12.8246C38.7367 13.1973 38.7892 13.6178 38.7892 13.9953C38.7892 14.798 38.7892 15.6007 38.7892 16.4035C38.7892 20.8806 38.7892 25.3578 38.7892 29.8349C38.7892 30.5182 38.7892 31.2015 38.7892 31.8848C38.7892 32.0377 38.7414 32.2766 38.7892 32.4199C38.794 32.439 38.7749 32.5155 38.7892 32.5298C38.8227 32.5633 39.0044 32.4486 38.9948 32.4104C38.9805 32.3387 38.6028 32.181 38.5406 32.1475C38.2299 31.966 37.9143 31.7796 37.6035 31.5981C36.6856 31.0629 35.7724 30.5278 34.8544 29.9926C33.0184 28.9175 31.1825 27.8472 29.3465 26.7721C29.1696 26.6718 28.9401 26.4663 28.7393 26.4185C28.5911 26.3803 28.6676 26.5141 28.7202 26.3994C28.7824 26.2465 28.7202 25.9216 28.7202 25.7544C28.7202 25.3625 28.7202 24.9707 28.7202 24.5789C28.7202 22.2854 28.7202 19.9919 28.7202 17.6984C28.7202 16.8001 28.7202 15.9018 28.7202 15.0035C28.7202 14.6547 28.8541 13.914 28.3808 13.7994C28.0126 13.7134 27.4437 14.2007 27.1616 14.3632C26.3249 14.8506 25.493 15.3427 24.6563 15.8301C22.739 16.953 20.8218 18.0758 18.9046 19.1939C18.6416 19.3468 18.3786 19.4997 18.1205 19.6526C18.0727 19.6813 17.9483 19.7243 17.9149 19.7721C17.7762 19.9871 17.8719 19.4089 18.044 19.8724C17.9101 19.5141 17.3316 19.6717 17.4655 20.0301C17.7141 20.7038 18.3117 20.226 18.7038 19.9967C19.4974 19.5332 20.2911 19.0697 21.0848 18.6014C23.0785 17.4356 25.0722 16.2697 27.0612 15.1038C27.1807 15.0321 28.3377 14.4922 28.3425 14.3536C28.3425 14.3202 28.1226 14.239 28.1178 14.2437C28.1082 14.2533 28.1226 14.3011 28.1178 14.3106C28.0891 14.368 28.1178 14.5113 28.1178 14.5734C28.1178 14.8888 28.1178 15.2041 28.1178 15.5147C28.1178 17.813 28.1178 20.1113 28.1178 22.4096C28.1178 23.4131 28.1178 24.4165 28.1178 25.4199C28.1178 25.7878 27.9791 26.4902 28.2564 26.796C28.529 27.1018 29.0597 27.2929 29.4039 27.4984C30.3028 28.024 31.2016 28.5496 32.0957 29.0752C34.0177 30.1981 35.9397 31.3209 37.8569 32.4486C38.1486 32.6206 38.7367 33.1223 39.1048 32.9598C39.4634 32.8022 39.3725 32.2909 39.3725 31.9755C39.3725 27.8185 39.3725 23.6615 39.3725 19.5045C39.3725 17.598 39.3725 15.6963 39.3725 13.7898C39.3725 13.4744 39.4251 13.1065 39.3725 12.7912C39.3152 12.4376 39.0522 12.342 38.7797 12.1843C35.4855 10.2826 32.1865 8.37614 28.8923 6.47442C25.493 4.50104 22.0792 2.52765 18.6655 0.554268C18.4551 0.434813 18.1731 0.195905 17.9197 0.191126C17.389 0.18157 17.4607 0.759729 17.4607 1.11809C17.4607 2.80479 17.4607 4.49148 17.4607 6.17818C17.4607 10.4785 17.4607 14.7837 17.4607 19.084C17.4607 19.3707 17.4607 19.6574 17.4607 19.9489C17.4607 20.3311 18.0583 20.3311 18.0583 19.9489Z" fill="#F0F0F0"/>
<path d="M17.8288 19.8151C15.8207 20.9093 13.8079 22.0035 11.7998 23.0977C11.36 23.3366 10.8675 23.4704 10.834 24.0294C10.8006 24.6076 10.8388 25.2001 10.8436 25.7783C10.8723 31.2206 10.9057 36.6629 10.9344 42.1053C10.944 43.9353 10.9536 45.7606 10.9631 47.5906C10.9679 48.078 11.1639 48.5701 11.7711 48.3026C12.3162 48.0589 12.8325 47.6957 13.3537 47.3995C17.8862 44.8145 22.4187 42.2295 26.9512 39.6445C27.2428 39.4773 27.9887 39.2193 28.1082 38.8466C28.2517 38.3974 27.611 38.1489 27.3146 37.9674C26.803 37.652 26.2914 37.3414 25.7798 37.0261C23.2984 35.5066 20.8266 33.9728 18.3213 32.4868C18.197 32.4151 18.0726 32.3339 17.9483 32.267C17.8623 32.2192 17.628 32.0424 17.8575 32.2336C17.8718 32.353 17.891 32.4725 17.9053 32.5967C17.8623 32.6923 17.7906 32.6636 17.9005 32.6302C17.9818 32.6063 18.0774 32.5203 18.1539 32.4773C18.4265 32.3148 18.699 32.1571 18.9715 31.9994C19.813 31.5168 20.6545 31.039 21.5007 30.5612C23.3797 29.5004 25.2635 28.4445 27.152 27.3885C27.5919 27.1448 28.0269 26.8963 28.4668 26.6527C28.8015 26.4663 28.5003 25.9503 28.1656 26.1366C25.0148 27.8902 21.8641 29.6438 18.742 31.4404C18.4265 31.622 18.1109 31.8035 17.7953 31.9899C17.6758 32.0615 17.4511 32.1571 17.3889 32.2909C17.3411 32.4008 17.3268 32.5633 17.4368 32.654C17.6137 32.7974 17.4463 32.6636 17.5945 32.7544C17.7188 32.8261 17.8479 32.8977 17.9722 32.9742C18.3882 33.2226 18.8042 33.4711 19.2201 33.7244C20.5015 34.4984 21.7828 35.282 23.0594 36.0609C24.2642 36.7967 25.469 37.5326 26.6739 38.2732C26.8651 38.3926 27.0612 38.5121 27.2524 38.6268C27.3146 38.665 27.4054 38.751 27.4723 38.7605C27.4915 38.7653 27.5584 38.8322 27.5727 38.8227C27.5919 38.8131 27.5871 38.5838 27.5966 38.5885C27.5632 38.5694 27.2715 38.7749 27.2381 38.794C22.9829 41.2213 18.7324 43.6438 14.4772 46.0712C13.674 46.5299 12.8708 46.9886 12.0676 47.4473C11.9433 47.5189 11.5799 47.6432 11.5082 47.7674C11.446 47.8677 11.513 47.9107 11.5703 47.8152C11.6277 47.7196 11.5703 47.3995 11.5655 47.2896C11.5655 46.9694 11.5608 46.6493 11.5608 46.3292C11.556 45.3353 11.5512 44.3462 11.5464 43.3524C11.5177 37.953 11.489 32.5585 11.4556 27.1591C11.4508 26.3325 11.446 25.5107 11.4412 24.684C11.4412 24.4834 11.4651 24.2588 11.4365 24.0581C11.4317 24.0103 11.4412 23.9625 11.4365 23.9148C11.4317 23.8383 11.2882 24.0247 11.4125 23.9864C11.7185 23.9004 12.0437 23.6424 12.321 23.4895C12.9043 23.1741 13.4876 22.854 14.0709 22.5386C15.2231 21.9127 16.3706 21.2868 17.5228 20.6608C17.7284 20.5509 17.9292 20.4363 18.1348 20.3264C18.4695 20.1496 18.1683 19.6335 17.8288 19.8151Z" fill="#F0F0F0"/>
<path d="M27.6923 38.9517C29.38 39.8452 31.0629 40.7339 32.7507 41.6275C33.3818 41.9619 34.0416 42.4254 34.7157 42.6691C35.0695 42.7933 35.2656 42.6261 35.5524 42.4589C38.9614 40.4568 42.3655 38.45 45.7745 36.4479C49.0782 34.508 52.3772 32.5633 55.6809 30.6233C56.03 30.4179 56.4268 30.0738 55.9535 29.6916C55.7096 29.4957 55.3893 29.3523 55.1215 29.1947C53.429 28.1817 51.7317 27.1687 50.0392 26.1557C46.5538 24.0725 43.0636 21.9892 39.5781 19.9011C39.5112 19.8581 39.4395 19.8199 39.3725 19.7769C39.0426 19.581 38.7414 20.097 39.0713 20.2929C41.9878 22.0369 44.9091 23.781 47.8256 25.525C49.7284 26.6622 51.6265 27.7994 53.5294 28.9319C54.0984 29.2711 54.6721 29.6151 55.2411 29.9544C55.308 29.9974 55.5375 30.1885 55.6188 30.179C55.7144 30.1694 55.7144 29.9831 55.5997 29.9783C55.3606 29.9687 54.8203 30.437 54.6195 30.5517C53.9789 30.9291 53.3382 31.3066 52.6975 31.6841C50.7851 32.8069 48.8726 33.9346 46.965 35.0575C43.3026 37.2124 39.6403 39.3674 35.9779 41.5176C35.715 41.6705 35.1604 41.8664 34.9739 42.1101C34.9596 42.1292 34.9213 42.1387 34.9022 42.1531C35.0934 42.024 35.0647 42.2295 34.9787 42.1196C34.8448 41.9476 34.4049 41.8138 34.2137 41.7135C32.2965 40.7005 30.384 39.6875 28.4668 38.6745C28.3138 38.5933 28.1656 38.5121 28.0126 38.4356C27.654 38.2541 27.3528 38.7701 27.6923 38.9517Z" fill="#F0F0F0"/>
<path d="M17.5085 12.299C13.4254 14.6164 9.34232 16.9386 5.25924 19.256C4.18349 19.8676 3.10773 20.4792 2.03198 21.0861C1.53475 21.368 0.956231 21.6117 0.497243 21.9557C-0.2008 22.4765 0.707612 22.8827 1.10923 23.112C2.18498 23.7332 3.26551 24.3543 4.34126 24.9755C6.55014 26.2465 8.75902 27.5175 10.9679 28.7933C11.3026 28.9844 11.6038 28.4684 11.2691 28.2772C9.46662 27.2404 7.66414 26.2035 5.86644 25.1666C4.65682 24.469 3.44719 23.7762 2.24235 23.0786C1.87421 22.8636 1.50128 22.6533 1.13313 22.4383C1.06142 22.3953 0.937106 22.2854 0.855827 22.2806C0.846265 22.2806 0.793673 22.2328 0.78411 22.2376C0.736299 22.2615 0.731518 22.4574 0.78411 22.4813C0.831921 22.5052 1.14748 22.2758 1.19051 22.2472C1.49172 22.0752 1.79293 21.9079 2.09414 21.7359C3.09817 21.1673 4.09743 20.5987 5.10146 20.0301C7.69283 18.5584 10.289 17.0867 12.8803 15.6103C14.525 14.6785 16.1698 13.742 17.8145 12.8103C18.1444 12.6239 17.8431 12.1079 17.5085 12.299Z" fill="#F0F0F0"/>
<path d="M35.103 10.4594C36.8911 9.38911 38.684 8.3188 40.4722 7.24849C41.6722 6.53176 42.8723 5.81503 44.0724 5.09353C44.4405 4.87373 44.8086 4.65394 45.1768 4.43414C45.2485 4.39114 45.4063 4.33858 45.4541 4.27168C45.4589 4.26213 45.5258 4.24301 45.5258 4.22868C45.5306 4.17612 45.3585 4.06622 45.3107 4.10445C45.2676 4.13312 45.3107 4.52015 45.3107 4.57271C45.3107 4.91674 45.3107 5.26076 45.3107 5.60479C45.3107 6.75155 45.3107 7.90309 45.3107 9.04986C45.3107 12.0267 45.3107 14.9987 45.3107 17.9755C45.3107 19.8629 45.3107 21.7502 45.3107 23.6328C45.3107 24.0151 45.9083 24.0199 45.9083 23.6328C45.9083 18.9502 45.9083 14.2676 45.9083 9.58501C45.9083 8.35224 45.9083 7.11947 45.9083 5.88193C45.9083 5.31333 45.98 4.68738 45.9083 4.12356C45.7983 3.25393 44.9999 3.84643 44.5983 4.08533C43.5273 4.72561 42.4563 5.36588 41.3854 6.00616C39.1908 7.31538 36.9963 8.62938 34.8018 9.9386C34.4719 10.1393 34.7731 10.6601 35.103 10.4594Z" fill="#F0F0F0"/>
<path d="M21.6919 42.5162C25.6794 44.8336 29.6716 47.151 33.6591 49.4684C34.7492 50.0991 35.8345 50.7346 36.9246 51.3654C37.4553 51.6712 37.9812 52.0439 38.5406 52.3019C39.2912 52.6507 39.2769 51.8575 39.2721 51.3654C39.2626 50.1899 39.2482 49.0145 39.2387 47.8391C39.2147 45.2923 39.1861 42.7455 39.1622 40.1988C39.1574 39.8165 38.5597 39.8117 38.5645 40.1988C38.5836 42.2773 38.6075 44.3558 38.6267 46.4295C38.641 47.7722 38.6554 49.1148 38.6649 50.4575C38.6697 50.8541 38.6745 51.2555 38.6793 51.652C38.6793 51.6855 38.6554 51.891 38.684 51.9148C38.751 51.977 38.904 51.8814 38.8753 51.8002C38.8466 51.7142 38.4593 51.5565 38.3828 51.5135C38.0625 51.3271 37.7422 51.1408 37.417 50.9544C36.4226 50.3763 35.4281 49.7981 34.4336 49.22C31.8757 47.7339 29.313 46.2432 26.7551 44.7571C25.1678 43.835 23.5853 42.9128 21.9979 41.9954C21.6585 41.809 21.3573 42.3251 21.6919 42.5162Z" fill="#F0F0F0"/>
<path d="M39.0235 52.6316L11.0922 48.6036L0 22.2806L0.138652 22.2042C0.745855 21.6786 12.9234 6.07306 17.5754 0.0907853L17.6423 0L17.7523 0.0143345L45.8318 3.66008L45.8748 3.7652L56.2451 30.1025L56.1782 30.1885L39.0235 52.6316ZM11.3647 48.2548L38.8562 52.2159L55.8052 30.0404L45.5545 4.00889L17.8145 0.410923C14.9458 4.09967 1.9746 20.7659 0.46855 22.4049L11.3647 48.2548Z" fill="url(#paint0_linear_546_11536)"/>
<path d="M35.0313 42.8172L10.9153 23.8813L17.5419 0.152893L17.9148 0.258013L11.3504 23.738L34.7396 42.1005L38.7414 12.8246L11.3312 23.8574L11.2691 23.4704L39.21 12.2226L39.1669 12.5523L35.0313 42.8172Z" fill="url(#paint1_linear_546_11536)"/>
<path d="M55.8865 30.2076L38.7223 12.5427L45.1959 4.16179L31.1633 7.85532L30.6948 7.58296L45.325 3.73175C45.4541 3.69831 45.5832 3.74609 45.6549 3.85599C45.7266 3.96589 45.7218 4.10445 45.6405 4.20957L39.2291 12.5093L56.1638 29.9353L55.8865 30.2076Z" fill="url(#paint2_linear_546_11536)"/>
<path d="M38.9088 52.2493C38.7606 52.2493 38.6267 52.1633 38.5693 52.02L34.7683 42.6834C32.6981 43.2043 11.6373 48.5032 11.2882 48.6084L11.2309 48.4268L11.0348 48.4507C11.0157 48.2787 11.0157 48.2787 12.1919 47.9776C12.8373 47.8152 13.7649 47.5811 14.8741 47.2991C17.0925 46.7401 20.0473 45.9947 23.0068 45.2493C28.921 43.7585 34.8353 42.2725 34.8353 42.2725L34.9978 42.2343L38.9231 51.8814L42.8388 38.0964L43.2739 37.8336L39.2578 51.9865C39.2148 52.1394 39.0857 52.2446 38.9231 52.2541C38.9231 52.2493 38.9135 52.2493 38.9088 52.2493Z" fill="url(#paint3_linear_546_11536)"/>
<path d="M10.9583 33.6479C0.105156 22.4717 0.148187 22.5004 0.219903 22.3332L0.267715 22.2185H0.396805C0.478084 22.2185 7.00909 23.0738 10.9918 23.5946L11.1065 23.996C8.02269 23.5898 2.56265 22.8779 0.884479 22.6629C2.40966 24.2779 8.37649 30.437 10.9583 33.0984V33.6479Z" fill="url(#paint4_linear_546_11536)"/>
<path d="M62.5705 38.9373V15.4335H64.1387V37.6902H71.253V38.9373H62.5705Z" fill="#F0F0F0"/>
<path d="M71.7168 38.9373L76.6509 15.4335H78.4821L83.4449 38.9373H81.848L80.6288 32.439H74.5329L73.285 38.9373H71.7168ZM74.7624 31.2779H80.4232L77.5784 17.3496L74.7624 31.2779Z" fill="#F0F0F0"/>
<path d="M91.1664 38.9373V15.4335H99.2656V16.6806H92.7346V26.1414H98.3668V27.3598H92.7346V38.9373H91.1664Z" fill="#F0F0F0"/>
<path d="M107.164 39.2575C105.634 39.2575 104.448 38.9517 103.607 38.3448C102.765 37.738 102.177 36.9066 101.852 35.8506C101.522 34.7947 101.36 33.6001 101.36 32.267V21.9939C101.36 20.6608 101.532 19.4806 101.881 18.4533C102.23 17.4308 102.823 16.628 103.664 16.0451C104.506 15.4669 105.672 15.1755 107.164 15.1755C108.656 15.1755 109.822 15.4669 110.664 16.0451C111.505 16.6233 112.103 17.4308 112.452 18.4533C112.801 19.4806 112.973 20.6608 112.973 21.9939V32.2957C112.973 33.6288 112.811 34.8185 112.481 35.865C112.151 36.9114 111.567 37.738 110.726 38.3448C109.88 38.9517 108.694 39.2575 107.164 39.2575ZM107.164 37.953C108.288 37.953 109.153 37.7332 109.76 37.2841C110.367 36.8397 110.793 36.2138 111.022 35.411C111.252 34.6083 111.371 33.6766 111.371 32.611V21.7598C111.371 20.6943 111.257 19.7673 111.022 18.9741C110.788 18.1809 110.372 17.5693 109.775 17.1297C109.177 16.6949 108.302 16.4751 107.164 16.4751C106.04 16.4751 105.175 16.6949 104.563 17.1297C103.956 17.5646 103.53 18.1809 103.301 18.9741C103.067 19.7673 102.952 20.6943 102.952 21.7598V32.611C102.952 33.6766 103.067 34.6083 103.301 35.411C103.535 36.2138 103.956 36.8397 104.563 37.2841C105.17 37.7285 106.04 37.953 107.164 37.953Z" fill="#F0F0F0"/>
<path d="M116.396 38.9373V15.4335H122.086C123.482 15.4335 124.548 15.6915 125.294 16.2028C126.04 16.7141 126.551 17.4117 126.834 18.2909C127.116 19.17 127.254 20.1543 127.254 21.2342C127.254 22.1038 127.163 22.9352 126.977 23.7284C126.791 24.5216 126.456 25.1953 125.959 25.7448C125.466 26.2943 124.744 26.6479 123.798 26.8056L127.575 38.9326H126.006L122.349 27.0922H117.965V38.9326H116.396V38.9373ZM117.965 25.8834H122.029C123.037 25.8834 123.798 25.697 124.323 25.3195C124.845 24.9421 125.208 24.4069 125.414 23.7093C125.614 23.0117 125.72 22.1898 125.72 21.2438C125.72 19.753 125.471 18.6205 124.978 17.8465C124.486 17.0724 123.492 16.6854 122.005 16.6854H117.969V25.8834H117.965Z" fill="#F0F0F0"/>
<path d="M130.419 38.9373L131.117 15.4335H132.686L137.648 36.6438L142.702 15.4335H144.328L144.997 38.9373H143.634L143.056 19.2369L138.265 38.9373H137.103L132.37 19.2656L131.787 38.9373H130.419Z" fill="#F0F0F0"/>
<path d="M147.373 38.9373L152.307 15.4335H154.139L159.101 38.9373H157.504L156.285 32.439H150.189L148.941 38.9373H147.373ZM150.424 31.2779H156.084L153.24 17.3496L150.424 31.2779Z" fill="#F0F0F0"/>
<path d="M171.967 39.2575C170.476 39.2575 169.323 38.9517 168.511 38.3448C167.698 37.738 167.134 36.8923 166.813 35.8076C166.493 34.723 166.335 33.495 166.335 32.1237V22.1373C166.335 20.7659 166.493 19.5571 166.813 18.5106C167.134 17.4642 167.707 16.6472 168.539 16.0594C169.371 15.4717 170.543 15.1755 172.053 15.1755C173.426 15.1755 174.506 15.4478 175.29 15.9878C176.074 16.5277 176.634 17.3018 176.973 18.31C177.313 19.3182 177.48 20.5079 177.48 21.8793V22.6915H175.969V21.7885C175.969 20.6274 175.854 19.6574 175.62 18.8738C175.386 18.0902 174.989 17.4977 174.43 17.0915C173.87 16.6854 173.077 16.4847 172.049 16.4847C170.906 16.4847 170.036 16.7236 169.433 17.1966C168.836 17.6697 168.434 18.3291 168.228 19.17C168.028 20.011 167.922 20.9857 167.922 22.0847V32.3291C167.922 33.4711 168.037 34.4602 168.272 35.3011C168.506 36.1421 168.922 36.7967 169.519 37.2602C170.117 37.7237 170.973 37.9578 172.072 37.9578C173.12 37.9578 173.923 37.738 174.497 37.2889C175.065 36.8445 175.462 36.2042 175.687 35.3728C175.912 34.5414 176.022 33.5571 176.022 32.4151V28.9557H172.278V27.7373H177.504V38.9373H176.49L176.256 36.295C175.964 37.2029 175.486 37.9244 174.817 38.4547C174.157 38.9899 173.206 39.2575 171.967 39.2575Z" fill="#F0F0F0"/>
<path d="M181.2 38.9373V15.4335H186.889C188.285 15.4335 189.351 15.6915 190.097 16.2028C190.843 16.7141 191.355 17.4117 191.637 18.2909C191.919 19.17 192.058 20.1543 192.058 21.2342C192.058 22.1038 191.967 22.9352 191.78 23.7284C191.599 24.5216 191.259 25.1953 190.762 25.7448C190.269 26.2943 189.547 26.6479 188.601 26.8056L192.373 38.9326H190.805L187.147 27.0922H182.763V38.9326H181.2V38.9373ZM182.768 25.8834H186.832C187.836 25.8834 188.606 25.697 189.127 25.3195C189.648 24.9421 190.011 24.4069 190.217 23.7093C190.422 23.0117 190.523 22.1898 190.523 21.2438C190.523 19.753 190.274 18.6205 189.782 17.8465C189.289 17.0724 188.295 16.6854 186.808 16.6854H182.773V25.8834H182.768Z" fill="#F0F0F0"/>
<path d="M194.262 38.9373L199.196 15.4335H201.027L205.99 38.9373H204.393L203.174 32.439H197.078L195.83 38.9373H194.262ZM197.312 31.2779H202.973L200.128 17.3496L197.312 31.2779Z" fill="#F0F0F0"/>
<path d="M208.662 38.9373V15.4335H216.762V16.6806H210.231V26.1414H215.863V27.3598H210.231V38.9373H208.662Z" fill="#F0F0F0"/>
<path d="M219.377 38.9373V15.4335H220.945V38.9373H219.377Z" fill="#F0F0F0"/>
<path d="M230.12 39.2575C228.571 39.2575 227.385 38.9373 226.563 38.3018C225.741 37.6616 225.172 36.8063 224.866 35.736C224.555 34.6609 224.402 33.4759 224.402 32.181V22.1946C224.402 20.8424 224.564 19.6383 224.894 18.5823C225.224 17.5263 225.803 16.6949 226.635 16.0881C227.467 15.4813 228.628 15.1755 230.12 15.1755C231.492 15.1755 232.568 15.4478 233.343 15.9878C234.117 16.5277 234.667 17.297 234.997 18.2956C235.327 19.2943 235.489 20.4554 235.489 21.7932V22.983H233.978V21.7885C233.978 20.6656 233.873 19.7147 233.658 18.9311C233.443 18.1475 233.06 17.5454 232.496 17.1154C231.932 16.6902 231.143 16.4751 230.115 16.4751C228.992 16.4751 228.131 16.7093 227.533 17.1728C226.936 17.6362 226.525 18.2861 226.314 19.1175C226.099 19.9489 225.994 20.9141 225.994 22.0178V32.4056C225.994 33.5667 226.109 34.5557 226.343 35.3824C226.577 36.2042 226.993 36.8397 227.591 37.2841C228.188 37.7285 229.035 37.953 230.115 37.953C231.162 37.953 231.966 37.7332 232.525 37.2841C233.084 36.8397 233.467 36.2138 233.672 35.411C233.873 34.6083 233.978 33.6766 233.978 32.611V31.1871H235.489V32.3482C235.489 33.6813 235.336 34.8711 235.026 35.9175C234.715 36.9639 234.174 37.781 233.4 38.3687C232.625 38.9612 231.531 39.2575 230.12 39.2575Z" fill="#F0F0F0"/>
<path d="M237.406 38.9373L242.341 15.4335H244.172L249.135 38.9373H247.538L246.319 32.439H240.223L238.975 38.9373H237.406ZM240.457 31.2779H246.118L243.273 17.3496L240.457 31.2779Z" fill="#F0F0F0"/>
<path d="M250 44.0595H62.6566V45.1012H250V44.0595Z" fill="url(#paint5_linear_546_11536)"/>
</g>
<defs>
<linearGradient id="paint0_linear_546_11536" x1="0" y1="26.3153" x2="56.243" y2="26.3153" gradientUnits="userSpaceOnUse">
<stop offset="0.00372439" stop-color="#739FFF"/>
<stop offset="1" stop-color="#E6B850"/>
</linearGradient>
<linearGradient id="paint1_linear_546_11536" x1="10.9135" y1="21.4841" x2="39.2106" y2="21.4841" gradientUnits="userSpaceOnUse">
<stop offset="0.00372439" stop-color="#739FFF"/>
<stop offset="1" stop-color="#E6B850"/>
</linearGradient>
<linearGradient id="paint2_linear_546_11536" x1="30.6945" y1="16.964" x2="56.1624" y2="16.964" gradientUnits="userSpaceOnUse">
<stop offset="0.00372439" stop-color="#739FFF"/>
<stop offset="1" stop-color="#E6B850"/>
</linearGradient>
<linearGradient id="paint3_linear_546_11536" x1="11.0338" y1="45.0416" x2="43.2775" y2="45.0416" gradientUnits="userSpaceOnUse">
<stop offset="0.00372439" stop-color="#739FFF"/>
<stop offset="1" stop-color="#E6B850"/>
</linearGradient>
<linearGradient id="paint4_linear_546_11536" x1="0.207616" y1="27.9318" x2="11.1078" y2="27.9318" gradientUnits="userSpaceOnUse">
<stop offset="0.00372439" stop-color="#739FFF"/>
<stop offset="1" stop-color="#E6B850"/>
</linearGradient>
<linearGradient id="paint5_linear_546_11536" x1="62.6589" y1="44.5801" x2="250.001" y2="44.5801" gradientUnits="userSpaceOnUse">
<stop offset="0.00372439" stop-color="#739FFF"/>
<stop offset="1" stop-color="#E6B850"/>
</linearGradient>
<clipPath id="clip0_546_11536">
<rect width="250" height="52.6316" fill="white"/>
</clipPath>
</defs>
</svg>
