<svg width="20" height="20" viewBox="0 0 20 20" fill="none" xmlns="http://www.w3.org/2000/svg">
<path d="M11.25 7.0835H16.25L11.25 2.0835V7.0835ZM4.73954 0.833496H12.0312L17.5 6.3335V17.3335C17.5 18.346 16.6838 19.1668 15.677 19.1668H4.73954C3.72782 19.1668 2.91663 18.3418 2.91663 17.3335V2.66683C2.91663 1.65431 3.73277 0.833496 4.73954 0.833496ZM9.37556 10.4168C9.7717 11.2889 10.2741 12.006 10.8538 12.5002L11.25 12.8102C10.4094 12.9653 9.24996 13.2366 8.02291 13.7114L7.91663 13.7502L8.39972 12.7424C8.8345 11.8994 9.15334 11.1339 9.37556 10.4168ZM15.1547 13.9535C15.318 13.7902 15.3997 13.5815 15.4088 13.3547C15.436 13.1732 15.3906 13.0008 15.2999 12.8557C15.0368 12.4293 14.3563 12.2297 13.2312 12.2297L12.0607 12.2932L11.2714 11.767C10.6997 11.2952 10.1826 10.4696 9.81964 9.44438L9.85593 9.31737C10.1553 8.11071 10.4366 6.65003 9.83778 6.05124C9.69261 5.90608 9.493 5.8335 9.28431 5.8335H9.06655C8.73084 5.8335 8.43142 6.18733 8.34976 6.53209C8.01405 7.73874 8.21366 8.40104 8.54937 9.49882V9.50789C8.32254 10.3063 8.0322 11.2317 7.56946 12.1662L6.69842 13.7992L5.8909 14.2438C4.80211 14.9242 4.28493 15.6863 4.18512 16.1672C4.14883 16.3395 4.16698 16.4938 4.23049 16.6571L4.25771 16.7024L4.69323 16.9837L5.09245 17.0835C5.82739 17.0835 6.66213 16.2216 7.78722 14.2982L7.95054 14.2347C8.88509 13.9353 10.0465 13.7266 11.6071 13.5543C12.5416 14.017 13.6395 14.2256 14.3291 14.2256C14.7283 14.2256 15.0005 14.1258 15.1547 13.9535ZM14.9155 13.2085L15 13.3002C14.9906 13.3835 14.9624 13.3918 14.9155 13.4085H14.878L14.6997 13.4252C14.268 13.4252 13.6017 13.2668 12.9166 13.0002C13.0011 12.9168 13.0386 12.9168 13.1325 12.9168C14.4463 12.9168 14.8217 13.1252 14.9155 13.2085ZM6.66663 14.5835C6.0256 15.5752 5.44375 16.1252 4.99996 16.2502C5.04927 15.9335 5.49306 15.3835 6.19325 14.8418L6.66663 14.5835ZM9.32205 8.3335C9.13038 7.46944 9.12205 6.7686 9.26371 6.36537L9.32205 6.25016L9.44705 6.29817C9.58871 6.52858 9.60538 6.8358 9.52205 7.35423L9.49705 7.50784L9.36371 8.29509L9.32205 8.3335Z" fill="#1D325F"/>
</svg>
